<?xml version="1.0" encoding="UTF-8"?>
<svg id="Layer_1" data-name="Layer 1" xmlns="http://www.w3.org/2000/svg" viewBox="0 0 1920 1080">
  <defs>
    <style>
      .cls-1, .cls-2, .cls-3 {
        fill: #fff;
      }

      .cls-4 {
        letter-spacing: -.07em;
      }

      .cls-5 {
        fill: #1affde;
      }

      .cls-2 {
        font-size: 23.75px;
      }

      .cls-2, .cls-3 {
        font-family: NotoSans-Bold, 'Noto Sans';
        font-weight: 700;
        text-decoration: underline;
      }

      .cls-3 {
        font-size: 24.13px;
      }

      .cls-6 {
        fill: #d9fffc;
      }

      .cls-7 {
        fill: #f9be06;
      }

      .cls-8 {
        letter-spacing: -.02em;
      }
    </style>
  </defs>
  <path class="cls-6" d="m808.96,316.21c3.66-5,7.22-8.28,9.74-10.32,2.1-1.7,4.22-3.12,5.23-3.8,3.46-2.32,6.29-3.85,7.58-4.53,2.03-1.07,4.5-2.35,7.94-3.62,2.25-.83,4.03-1.32,5.77-1.81,1.73-.48,3.91-1.08,6.86-1.63,2.53-.47,4.42-.82,7.04-.91.73-.02.88,0,4.69,0,2.44,0,2.96-.04,4.15,0,1.88.06,3.28.22,4.51.36.87.1,3.38.4,6.68,1.09,1.77.37,3.85.8,6.49,1.63,2.99.93,5.14,1.88,7.04,2.72,2.2.97,4.7,2.09,7.76,3.98.65.4,1.94,1.22,3.97,2.72,3.14,2.31,7.74,5.7,12.63,11.22.94,1.06,3.14,3.62,5.59,7.24,3.63,5.38,5.62,9.85,6.13,11.04,1.52,3.5,2.33,6.26,2.89,8.15.91,3.12,2.55,8.82,3.07,16.47.56,8.24-.44,14.78-1.08,18.1-1.63,8.48-4.44,14.66-5.77,17.38-1.1,2.24-5.04,9.93-12.81,17.92-9.14,9.39-18.42,13.89-21.29,15.21-2.9,1.33-11.9,5.22-24.35,6.16-12.45.94-21.91-1.56-24.72-2.35-3.72-1.06-15.97-4.89-27.78-15.57-5.84-5.28-18.3-18.33-22.37-38.74-6.13-30.76,11.56-54.41,14.43-58.11Z"/>
  <path class="cls-5" d="m821.68,326.81c2.81-3.8,5.55-6.3,7.49-7.84,1.62-1.29,3.25-2.37,4.02-2.89,2.66-1.76,4.84-2.93,5.83-3.44,1.56-.81,3.46-1.79,6.11-2.75,1.73-.63,3.1-1.01,4.44-1.38,1.33-.37,3.01-.82,5.27-1.24,1.95-.36,3.4-.62,5.41-.69.56-.02.67,0,3.61,0,1.88,0,2.28-.03,3.19,0,1.45.05,2.52.17,3.47.28.67.08,2.6.31,5.13.83,1.36.28,2.96.61,5,1.24,2.3.71,3.96,1.43,5.41,2.06,1.69.74,3.62,1.59,5.97,3.03.5.31,1.49.93,3.05,2.06,2.42,1.76,5.96,4.34,9.71,8.53.72.8,2.42,2.75,4.3,5.5,2.8,4.09,4.32,7.49,4.72,8.39,1.17,2.66,1.79,4.75,2.22,6.19.7,2.37,1.96,6.7,2.36,12.52.43,6.27-.34,11.23-.83,13.76-1.25,6.44-3.41,11.15-4.44,13.21-.85,1.71-3.87,7.55-9.85,13.62-7.03,7.14-14.17,10.56-16.37,11.56-2.23,1.01-9.15,3.97-18.73,4.68-9.58.71-16.85-1.18-19.01-1.79-2.86-.8-12.28-3.71-21.37-11.83-4.49-4.02-14.08-13.93-17.21-29.45-4.71-23.38,8.89-41.35,11.1-44.17Z"/>
  <path class="cls-7" d="m855.6,325.87h16.51s1.09-.06,1.92,1.6-.42,3.65-1.53,3.76-16.9.14-16.9.14c0,0-1.03-.28-1.42-1.19s-.47-1.99-.22-2.6.67-1.44,1.65-1.71Z"/>
  <text class="cls-2" transform="translate(827.38 358.78) scale(1.05 1)"><tspan x="0" y="0">S</tspan><tspan class="cls-4" x="13.09" y="0">T</tspan><tspan x="25.18" y="0">ART</tspan></text>
  <rect class="cls-1" x="815.93" y="368.98" width="96.26" height="4.22"/>
  <text class="cls-3" transform="translate(835.73 396.67) scale(.9 1)"><tspan x="0" y="0">S</tspan><tspan class="cls-8" x="13.3" y="0">T</tspan><tspan x="26.79" y="0">OP</tspan></text>
</svg>