<?xml version="1.0" encoding="UTF-8"?>
<svg id="Layer_1" data-name="Layer 1" xmlns="http://www.w3.org/2000/svg" viewBox="0 0 613.15 647.78">
  <defs>
    <style>
      .cls-1 {
        fill: #fff;
      }

      .cls-1, .cls-2 {
        stroke: #fff;
        stroke-miterlimit: 10;
        stroke-width: 2px;
      }

      .cls-2 {
        fill: #ff8b00;
      }
    </style>
  </defs>
  <path class="cls-2" d="m289.55,1c3.77,1.46,7.74,2.55,11.28,4.45,6.77,3.63,9.62,10.18,10.61,17.3.71,5.18.41,10.53.11,15.79-.12,2.05-1.22,4.19-2.32,6.01-2.71,4.5-2.69,7.67.74,11.72,5.72,6.77,11.48,13.51,17.28,20.22,4.07,4.7,8.14,9.41,12.39,13.95,2.3,2.45,3.15,5.25,3.16,8.45.02,4.04-.08,8.08.09,12.1.03.82,1.04,1.6,1.6,2.4.35-.18.71-.36,1.06-.54v-10.21c2.26,0,4.23-.05,6.19,0,7.71.24,15.41.54,23.11.77,4.99.15,5.46.5,5.31,5.33-.16,5.41-.65,10.81-.69,16.21-.01,1.38.75,3.24,1.8,4.08,13.72,11.02,25.85,23.55,36.37,37.64.61.82,1.41,1.51,2.26,2.4.96-.91,1.72-2.05,2.77-2.54,1.54-.71,3.4-1.55,4.94-1.28,7.18,1.27,14.29,2.95,21.45,4.33.77.15,1.94-.49,2.57-1.12,1.62-1.62,3.51-3.23,4.46-5.24,2.17-4.6,6.88-5.7,10.48-8.3.72-.52,1.99-.36,3-.36,9.21-.02,18.41-.01,28.11-.01.04-.61.18-1.82.19-3.02.02-4.38.23-8.78-.06-13.14-.54-8.18,2.43-14.83,8.09-20.49,2.61-2.61,5.35-5.1,7.76-7.87.9-1.04,1.46-2.75,1.45-4.15-.03-9.55-.58-19.18,4.14-27.98,1.45-2.71,3.13-5.45,5.27-7.61,5.67-5.72,15.57-6.87,17.88,4.72,2.74,13.71.49,27.12-7.3,39-4.67,7.13-10.47,7.87-17.84,2.83-3.35,4.44-6.92,8.77-9.98,13.44-1.1,1.67-1.25,4.13-1.38,6.26-.33,5.06-.29,10.14-.6,15.2-.15,2.46.96,3.48,3.12,4.11,7.25,2.13,14.46,4.38,21.7,6.57,4.72,1.43,5.95,4.04,4,8.69-.35.84-.9,1.59-1.7,2.97,2.31.44,4.51.63,6.54,1.32,2.19.74,4.59,1.54,6.23,3.04,1.93,1.76,2.75,4.39.51,6.76-2.1,2.22-4.71,1.75-7.01.57-4.19-2.14-13.01-4.67-17.63-4.69-.6,4.75-1.32,9.5-1.78,14.27-.4,4.12-3.13,6.56-6.08,8.76-.64.48-2.17.02-3.19-.31-8.18-2.59-16.59-4.47-24.95-1.98-4.8,1.43-9.75,3.93-13.39,7.28-5.67,5.23-12.86,6.63-19.36,9.75-.08.04-.21-.04-.76-.17,1.08-3.08,2.14-6.13,3.21-9.17.11-.32.24-.76.49-.9,7.89-4.24,9.3-13.2,14.27-19.58,2.38-3.06,4.18-6.58,6.2-9.91.79-1.3,1.47-2.68,2.19-4.02-.3-.21-.61-.41-.91-.62-2.57,3.08-5.14,6.16-7.7,9.25-3.09,3.72-6.2,7.42-9.26,11.16-1.4,1.72-2.61,1.78-3.64-.29-2.74-5.51-5.66-10.95-8.05-16.61-.62-1.47.46-3.66.76-5.59-5.79-1.08-11.6-2.14-17.39-3.26-1.33-.26-2.67-.63-3.91-1.16-2.74-1.17-4.92.63-5.09,2.46-.14,1.54,1.93,4.44,3.47,4.78,6.22,1.4,12.62,2,18.94,3.02.8.13,1.83.83,2.16,1.54,3.71,7.97,5.96,16.38,6.12,25.15.15,8.12-2.42,15.22-9.82,19.8-1.55.96-2.95,2.16-4.21,3.62,7.9-3.94,15.8-7.88,23.69-11.82.2.23.41.46.61.7-1.04,1.93-2.06,3.86-3.13,5.77-5.34,9.51-7.48,19.51-6.62,30.54.86,11.15,3.72,21.41,9.98,30.56,2.5,3.66,5.67,7,9.08,9.83,2.05,1.7,3.63,3.32,4.15,5.84.85,4.06,1.57,8.15,2.4,12.52-7.47-.77-14.05-1.46-20.57-2.13-2.49-11.38-5.07-22.81-7.48-34.27-1.32-6.29-2.99-7.89-9.45-7.77-2.39.05-3.35-.66-3.79-3.12-1.72-9.41-3.7-18.78-5.63-28.15-.21-1.04-.77-2.01-1.16-3.01-.27.07-.54.14-.82.21.77,3.9,1.5,7.81,2.33,11.7,1.49,6.9,2.94,13.82,4.65,20.67.54,2.17,2.31,4.06,2.76,6.23,3.77,17.96,7.36,35.96,11,53.95,3.3,16.31,6.57,32.64,9.91,48.94,4.26,20.78,8.92,41.48,12.75,62.33,3.32,18.08,5.74,36.33,8.5,54.52.93,6.17.88,6.33-5.14,7.99-3.17.87-6.5,1.46-9.78,1.56-7.27.22-13.52-5.17-14.77-12.28-.25-1.42-.62-2.83-1.74-4.15.27,4.07-.08,8.31.92,12.19,2.75,10.74,11.03,13.91,21.2,12.65,16.03-1.98,30.41-25.93,21.11-42.33-1.26-2.23-3.06-4.15-5.12-6.9.88,9.34,1.71,17.72,2.45,26.11.31,3.53-1.95,7.08-5.26,8.4-11.87-75.76-29.62-150.34-43.75-225.63,4.4-1.21,6.34.1,7.35,4.8,5.11,23.73,10.26,47.46,15.42,71.29,6.05-1.74,12.02-3.45,18.71-5.37-1.85-14.07-3.74-28.44-5.63-42.79,11.27,5.33,23.04,5.2,34.74-.59,1.77,14.3,3.51,28.35,5.26,42.52,12.38,1.73,23.78,5.43,34.52,11.14,4.48,2.38,4.77,2.91,2.78,7.43-3.26,7.38-6.92,9.47-16.1,8.29-5.97-.77-11.86-2.07-18.2-2.57.61.53,1.14,1.33,1.85,1.54,9.45,2.83,18.95,4.24,28.72,1.35,1.28-.38,3.28.49,4.54,1.37,13.36,9.27,23.88,21.23,32.39,35,11.59,18.76,18.59,39.28,21.26,61.01,1.64,13.3,2.36,26.95,1.42,40.3-2.67,37.47-15.03,71.55-39.36,100.62-14.61,17.46-32.38,30.94-54.54,37.24-31.36,8.92-60.35,3.76-86.09-16.84-25.58-20.47-39.36-47.96-46.68-79.19-3.86-16.45-4.61-33.19-4.08-50.01.04-1.26.48-2.99,1.37-3.65,6.57-4.9,9.43-11.99,11.68-19.38,2.48-8.18,4.23-16.6,7.03-24.66,6.38-18.41,15.27-35.52,27.85-50.57,1.25-1.5,2.56-2.96,3.74-4.52.47-.62.64-1.47.95-2.21l-.83-.5c-2.53,3.18-5.13,6.31-7.57,9.54-10.36,13.7-18.83,28.54-24.82,44.61-2.93,7.85-4.31,16.27-6.36,24.44-2.63,10.52-8.53,17.86-19.55,20.31-2.8.62-4.01-.73-3.8-3.22.51-6.15,1.15-12.3,1.94-18.42,2.73-21.29,9.95-41.03,20.79-59.5,8.77-14.93,19.68-28.05,33.02-39.09,1.93-1.59,1.85-3.32,1.49-5.15-2.52-12.87-5.16-25.71-7.75-38.56-4.08-20.24-8.15-40.48-12.24-60.71-4.33-21.37-8.68-42.73-13.02-64.09-.5-2.47-1.25-4.93-1.31-7.42-.04-1.37.74-3.2,1.78-4.07,2.61-2.2,5.58-3.98,8.5-5.99-7.58-4.86-15.25-9.82-22.97-14.71-3.88-2.46-7.76-4.95-11.83-7.05-2.03-1.04-4.48-1.65-6.77-1.73-10.69-.35-21.34-.85-31.61-4.2-3.18-1.04-6.39-2.12-7.45-5.95q-5.17-1.02-5.31-6.47c-.03-1.04-.19-2.08-.15-3.11.09-2-.93-2.57-2.77-2.54-17.74.34-35.48.72-53.23.81-1.76,0-3.53-1.89-4.81-3.58-3.08,0-6.18.24-9.21-.12-1.25-.15-2.64-1.4-3.43-2.53-.73-1.05-.88-2.59-1.06-3.95-.96-7.58.56-9.23,8.06-9.34,2.97-.04,6.23.98,8.73-1.8.27-.3,1.75-.14,1.86.13,1.04,2.58,3.24,1.68,5.01,1.69,15.34.05,30.68-.03,46.01.07,2.5.02,3.96-.43,4.86-3.07.38-1.12,2.49-2.2,3.9-2.32,3.87-.31,7.79-.11,11.85-.11.58-4.95,1.16-9.48,1.58-14.03.08-.8-.27-1.86-.81-2.47-10.32-11.62-20.66-23.22-31.1-34.74-2.92-3.23-6.56-4.14-11.1-3.7-8.85.84-17.49-.38-25.05-5.71-3.84-2.71-5.5-6.65-6.22-11.11-1.14-7.12-1.14-14.2.97-21.17,3.15-10.41,10.34-16.5,20.66-19.24.54-.14,1.02-.46,1.54-.69,1.85,0,3.69,0,5.54,0Zm-2.87,2.64c-.73.04-1.68-.02-2.57.16-1.34.28-2.67.69-3.97,1.13-9.82,3.3-15.09,10.74-14.08,21.01.82,8.33,4.71,15.4,11.36,20.59,5.46,4.27,16.28,5.03,20.9,1.13,7.64-6.45,13.3-13.85,10.69-25.07-2.8-12.06-9.66-17.71-22.33-18.94Zm209.53,615.9c-.04-.46-.08-.91-.13-1.37-4.67,0-9.37.34-14-.09-5.42-.51-11.07-.92-16.11-2.77-7.69-2.82-15.34-6.19-22.3-10.48-17.07-10.54-30.5-24.73-39.31-42.94-5.43-11.22-8.23-23.2-9.68-35.56-1.27-10.85-2.56-21.67-.64-32.57.2-1.16.2-2.36.29-3.53-.5-.03-1.01-.06-1.51-.09-.74,6.65-2.05,13.29-2.06,19.94-.01,7.43,1.08,14.87,1.84,22.29,1.39,13.7,5.04,26.82,12.08,38.66,10.65,17.92,24.93,32.32,43.24,42.63,12.13,6.83,25.03,9.35,38.75,7.92,3.21-.33,6.35-1.34,9.53-2.04Zm-56.84-133.32c.82-.53,1.38-.92,1.96-1.27,5.15-3.12,8.46-10.17,7.37-16.04-1.38-7.39-2.86-14.77-4.35-22.14-1.1-5.46-2.29-10.9-3.59-17.05-6.41,10.94-10.61,21.86-13.47,33.3-.29,1.17.12,2.78.74,3.88,3.62,6.38,7.4,12.66,11.33,19.33Zm-6.53-203.61c-.36.06-.72.12-1.07.18,0,.88-.13,1.79.02,2.65,1.68,9.91,3.25,19.83,5.14,29.7,3.7,19.27,7.6,38.5,11.42,57.74,3.56,17.91,7.12,35.81,10.7,53.71,3,14.99,6,29.97,9.15,44.93.22,1.04,1.64,1.84,2.5,2.75.5-1.23,1.61-2.58,1.4-3.67-3.36-17.01-6.92-33.99-10.39-50.98-4.34-21.24-8.62-42.5-12.99-63.74-4.62-22.46-9.29-44.92-13.99-67.36-.42-2.02-1.25-3.95-1.89-5.92Zm164.16,186.62c-.34.04-.69.08-1.03.11,0,2.27.1,4.55-.02,6.82-.42,8.03-.01,16.23-1.56,24.05-3.5,17.64-7.26,35.29-12.25,52.56-5.39,18.63-16.02,34.64-28.91,49.07-3.43,3.84-7.13,7.45-10.71,11.16.2.27.39.53.59.8,2.52-1.45,5.22-2.67,7.53-4.4,14.47-10.83,24.28-25.36,31.25-41.69,3.92-9.17,6.54-18.95,9.18-28.61,4.95-18.14,8.8-36.51,7.75-55.49-.26-4.81-1.19-9.58-1.82-14.36Zm-79.49-374.13c.88,2.57,2.12,6.94,3.94,11.04.53,1.2,2.69,2.14,4.22,2.32,3.28.4,5.6-1.29,7.14-4.28,4.42-8.56,5.42-17.91,6.6-27.25.38-2.96-.58-5.12-2.69-6.91-2.27-1.93-4.82-1.4-7.11-.2-1.68.88-3.3,2.15-4.5,3.62-4.68,5.69-6.69,12.45-7.61,21.66Zm16.72,473.06c3.94-7.84,8-15.48,11.66-23.32,2.73-5.86.53-9.32-5.66-8.09-5.08,1.01-10.58,3.05-14.4,6.36-3.89,3.38-6.03,8.81-8.77,13.45-1.02,1.73-1.43,3.72,1.12,4.8,5.04,2.14,10.08,4.27,16.04,6.8Zm-68.2-410.5c4.51,5.08,8.49,9.64,12.59,14.08.48.52,1.6.55,2.45.62,6.63.54,13.27,1.05,19.91,1.54,4.16.31,8.33.56,13.32.9-4.44-5.81-8.28-10.9-12.22-15.91-.4-.51-1.38-.74-2.11-.77-10.1-.5-20.2-.97-30.3-1.37-.99-.04-1.99.48-3.64.91Zm-203.96-27.33h55.3c-.28-3.27-.51-5.86-.72-8.25h-54.09c-.17,2.96-.32,5.45-.49,8.25Zm94.06-4.44c-.14-.34-.27-.68-.41-1.02,2.26-.96,4.46-2.57,6.79-2.75,6-.48,8.46-5.15,11.23-9.13,1.05-1.51.17-4.36.17-6.83-8.43-.42-16.85-.84-25.37-1.27-.29,5.69-.77,11.06-.8,16.44-.03,6.72-1.51,6.2,6.11,6.3,3.18.04,6.36,0,9.54,0-.01-.45-.02-.9-.03-1.35-2.41-.13-4.82-.25-7.23-.38Zm192.45,318.75c-4.95.95-9.26,2-13.64,2.54-2.52.31-2.72,1.43-2.41,3.44.7,4.51,1.64,9.02,1.82,13.56.16,3.97,1.57,6.14,5.4,7.47,7.36,2.56,7.31,2.78,12.03-3.66.76-1.04,1.99-2.44,1.77-3.4-1.46-6.65-3.25-13.22-4.97-19.96Zm-52.44,110.49c-1.49.62-2.71,1.26-4,1.66-4.19,1.3-6.98,4.2-9.09,7.86-.38.66-.74,1.78-.45,2.32,3.87,6.96,7.86,13.86,12.03,21.14,4.04-6.52,7.83-12.53,11.46-18.63.43-.73.43-2.29-.07-2.9-3.19-3.91-6.58-7.66-9.88-11.45Zm-119.87-421.5c15.08,17.23,29.87,34.13,44.49,50.84,3.4-5.93,3.34-6.57-1.45-12.02-1.97-2.24-4.02-4.44-5.82-6.82-8.41-11.16-18.07-21.12-28.59-30.27-1.7-1.48-3.43-2.94-5.21-4.46-1.43,1.14-2.57,2.05-3.42,2.73Zm146.14,236.05c.51.36,1.01.73,1.53,1.06,9.51,6.16,19.52,11.69,28.38,18.66,8.25,6.49,15.96,13.96,22.7,22.02,8.53,10.19,13.01,22.74,16.85,35.39.18.6.57,1.13.86,1.69-1.87-19.1-7.96-36.35-22.07-49.73-13.89-13.19-28.57-25.32-48.26-29.09Zm54.12,154.5c.44-.74.72-1.01.77-1.31,1.9-12.16,4.35-24.28,5.46-36.52.78-8.65-.07-17.48-.52-26.21-.7-13.75-4.31-26.85-9.98-39.34-1.28-2.82-3.63-5.16-5.49-7.73-.35.24-.69.48-1.04.72,1.35,2.65,3,5.2,4,7.98,6.68,18.55,8.79,37.91,8.84,57.42.04,14.75-1.29,29.51-2.04,44.98Zm-123.02,47.15c6.58-2.91,12.62-5.58,18.56-8.21.75-6.9-.89-12.93-4.96-18.27-.43-.57-1.11-1.31-1.7-1.33-3.4-.13-6.8-.06-10.21-.06-.57,9.5-1.11,18.42-1.69,27.87Zm-43.05-52.89c.5,2.78,1.13,5.53,1.47,8.33,2.08,16.99,8.2,32.48,17.29,46.89,7.65,12.13,16.3,23.18,30.45,28.23,3.97,1.42,8.09,2.41,12.14,3.6.24-.38.48-.77.72-1.15-37.31-16.82-53.26-48.71-62.06-85.9Zm128.06-.49c5.13-8.2,9.86-15.78,14.56-23.3-3.41-4.05-6.57-7.8-10.41-12.36-1.81,3.46-4.25,6.2-4.52,9.14-.32,3.61-1.53,5.81-4.52,7.37-1.19.62-2.36,1.26-3.74,1.99,2.84,5.64,5.56,11.05,8.63,17.15Zm-20.97,13.63c4.51-1.25,9.12-2.4,13.64-3.84,2.88-.91,6.13-6.85,5.05-9.1-2.6-5.42-5.39-10.76-8.05-16.03-9.36,7.56-12.42,17.28-10.64,28.96Zm-78.88,89.35c.64,1.24.71,1.47.85,1.64.22.26.47.51.75.71,15.07,10.93,31.35,17.28,50.48,14.45,10.49-1.55,20.73-3.66,30.27-8.4,2.91-1.44,5.65-3.22,8.47-4.85-.14-.33-.29-.66-.43-.99-14.26,6.59-29.43,9.04-44.88,9.84-16.05.84-30.41-5.36-45.51-12.41Zm14.23-77.55c-2.2,0-3.94.2-5.62-.05-2.42-.35-3.78.51-4.86,2.69-1.57,3.18-3.7,6.09-5.13,9.32-.63,1.42-.71,3.67,0,4.98,2.16,4.03,4.72,7.87,7.38,11.61.67.94,2.42,1.8,3.48,1.61,1.81-.32,3.6-1.13,3.42-3.85-.18-2.84.24-5.73.39-8.59.31-5.72.61-11.44.95-17.72Zm-61.33-374.39c.19-.19.37-.38.56-.57-4.99-7.38-10.04-14.73-14.94-22.17-3.27-4.96-7.28-8.08-13.63-6.86-3.54.68-7.12,1.16-10.68,1.73,0,.38-.01.76-.02,1.14,12.9,8.91,25.8,17.83,38.71,26.74Zm85.48,425.38c1.6.36,3.01.83,4.46.97,1.71.17,3.44.07,5.17.07,5.19,0,7.33-3.77,4.73-8.28-1.54-2.67-3.04-5.37-4.58-8.05-2.07-3.6-4.17-7.19-6.36-10.96-3.04,3.33-5.52,6.28-4.88,10.87.71,5.08.99,10.21,1.47,15.38Zm43.66-87.78c5.68-4.52,6.78-10.02,5.46-16.28-.45-2.11-.86-4.24-1.36-6.34-2.49-10.47-5.99-20.54-14.07-28.07-2.8-2.61-6.8-3.93-10.26-5.84-1.08-.6-2.17-1.19-3.42-1.87.04-.06-.33.37-.58.86-.24.48-.36,1.02-.72,2.1,10.14,4.89,17.3,12.75,21.79,23.13,4.48,10.35,4.48,21.09,3.15,32.31Zm-3.69,107.86c19.24-1.69,59.87-58.38,55.8-77.8-10.94,31.31-27.56,58.84-55.8,77.8Zm-44.56-48.93c-5.88,2.58-11.31,4.93-16.73,7.34-2.51,1.12-4,7.21-2.03,9,2.51,2.28,5.33,4.21,8.28,6.49,2.88-3.75,5.19-7.33,8.07-10.38,3.46-3.67,3.22-7.7,2.4-12.45Zm-34.4-153.59c-.54-.21-1.08-.41-1.61-.62-15.08,22.04-25.58,45.79-26.9,72.96,7.79-24.76,14.73-49.84,28.51-72.33Zm60.82,182.47c4.32-2.05,8.94-4.21,13.52-6.45.55-.27,1.09-.9,1.28-1.48,1.83-5.73-.35-12.82-5.07-16.5-3.56,5.74-6.96,11.57-10.73,17.14-1.79,2.64-2.02,4.67,1,7.28Zm-70.8-69.05c-.75,1.51-2.18,3.01-1.98,4.24.58,3.57,1.81,7.03,2.79,10.54,4.82-.15,9.89.55,14.34-.81,2.23-.68,3.31-5.1,5.13-8.2-6.86-1.95-13.29-3.78-20.28-5.77Zm-13.84-330.28l-1.36.2c0,.73-.11,1.48.02,2.19,1.29,6.94,2.42,13.92,3.97,20.8,2.83,12.56,5.87,25.08,8.95,37.59.47,1.91,1.59,3.65,2.41,5.47.56-.2,1.12-.4,1.68-.6-3.43-22.31-10-43.87-15.67-65.65Zm-69.48-71.62c-3.27,0-6.49.2-9.66-.1-1.15-.11-3.22-1.56-3.13-2.13.86-5.56-2.49-5.19-6.11-4.7-1.02.14-2.09.17-3.1,0-2.52-.42-3.31,1.14-3.41,3.09-.16,3.16-.04,6.33-.04,10.39,3.9-.64,6.71-1.19,9.54-1.53,1.89-.23,3.83-.28,5.74-.19,3.46.17,6.92.51,10.62.8-.17-2.16-.3-3.72-.45-5.62Zm210.64,373.51c-.34-.02-.68-.04-1.02-.06-4.1,6.59-7.98,13.34-12.4,19.71-2.15,3.1-2.21,5.45.32,8.2,2.91-.82,5.9-1.52,8.77-2.56.89-.32,1.91-1.5,2.06-2.42,1.06-6.43,1.95-12.89,2.76-19.35.14-1.13-.32-2.34-.5-3.51Zm-61.11-76.89c-.93-8.04-1.81-15.93-2.83-23.81-.08-.58-1.29-1.54-1.84-1.45-4.35.67-8.66,1.56-12.97,2.38.62,3.52,13.29,19.65,17.64,22.88Zm-68.47,76.48c-1.09,1.52-2.7,2.73-2.66,3.89.21,6.75.77,13.5,1.35,20.24.05.63.99,1.51,1.67,1.68.66.17,1.81-.19,2.24-.72,2.66-3.31,5.24-6.7,7.69-10.17.46-.64.64-2.13.23-2.63-3.25-4-6.68-7.85-10.52-12.29Zm99.16-110.39c-.79,3.52.22,5.59,3.38,7.44,10.05,5.9,17.67,14.2,22.62,24.84,1.51,3.25,2.97,6.51,4.72,10.36,1.34-14.92-14.57-36.66-30.72-42.64Zm-98.95,81.92c-.87,5.21-1.91,9.33-2.16,13.51-.25,4.23-2.75,9.3,3.49,12.06,3.07-1.91,6.41-3.99,10.01-6.22-3.71-6.34-7.25-12.38-11.33-19.35Zm90.61-272.75c.2-1.39.52-3.55.87-5.95-11.71-.83-22.95-1.63-34.2-2.42-.18.55-.35,1.11-.53,1.66,2.7,1.58,5.26,4.16,8.13,4.56,8.32,1.17,16.76,1.47,25.73,2.15Zm15.35,250.2c5.18-1.06,10.09-2.06,15.55-3.17-2.16-4.67-4.05-8.75-6.06-13.1-3.87,1.6-7.4,3.06-10.92,4.51.47,3.84.91,7.44,1.44,11.76Zm-53.05-39.36c-.16.08-.33.16-.49.24,2.03,9.41,4.05,18.83,6.24,29,3.2-3.81,5.97-7,8.56-10.33.35-.44.08-1.81-.37-2.35-4.59-5.56-9.28-11.05-13.94-16.55Zm-48.97,117.23c6.34,1.87,12.41,3.7,18.53,5.31.31.08,1.89-2.41,1.62-2.77-3.48-4.75-7.19-9.34-11.08-14.26-3.24,4.19-6.04,7.81-9.07,11.73Zm92.27,57.23c3.17-3.42,6.48-6.99,10.11-10.9-5.58-2.33-10.51-4.39-15.61-6.53-.59,6.86-1.54,13.18,5.51,17.42Zm-93.9-84.88c3.59,4.24,6.92,8.16,10.26,12.09,6.52-6.08,6.44-9.64-.32-18.26-3.19,1.98-6.38,3.96-9.94,6.17Zm45.57,48.63c-1.63,6.54,1.78,11.05,5.39,16.49,3.65-2.75,7.15-5.38,11.33-8.52-6.3-3-11.41-5.43-16.73-7.96Zm20.73,5.83c1.01,2.09,2.68,2.08,4.9.98,3.79-1.88,7.6-3.83,11.6-5.14,3.45-1.13,4.06-3.04,3.22-6.07-8.33-.1-16.44-.02-19.72,10.23Zm-16.82-9.1c5.78,1.02,10.46-.17,14.78-2.8,11.84-7.21,18.94-18.07,23.22-30.93,2.6-7.81,3.73-15.82,1.36-23.93-.52-1.77-1.56-3.38-2.35-5.07-.79.67-.88,1.02-.78,1.3,4.04,11.59,2.39,22.88-2.48,33.7-6.48,14.42-15.33,26.37-33.74,27.73Zm17.45-114.77c-3.47,4.2-6.41,7.74-9.36,11.31,1.74,2.27,3.18,4.5,5,6.38.82.85,2.67,1.66,3.53,1.28,1.17-.51,2.65-2.21,2.59-3.32-.28-4.95-1.05-9.88-1.75-15.66Zm12.71-268.09c-.19.35-.37.69-.56,1.04,5.46,8.74,15.6,7.94,23.85,11.49.69-2.08,2.82-4.12-.46-5.23-7.57-2.56-15.21-4.88-22.83-7.3Zm46.14,333.95c1.74-1.87,2.64-9.42,1.41-11.01-.26-.33-.7-.56-1.1-.74-1.86-.85-3.68-1.91-5.64-2.37-.86-.2-2.23.62-2.96,1.38-.49.51-.69,2.05-.3,2.55,2.75,3.48,5.69,6.8,8.59,10.19Zm-39.66,54.86c-5.05,2.2-9.62,4.18-14.53,6.31,3.68,1.65,6.9,3.12,10.14,4.55,2.85,1.26,4.19.45,4.37-2.79.14-2.52.03-5.05.03-8.07ZM309.28,59.49c-.2.07-.4.14-.61.21.54,1.06.92,2.25,1.66,3.15,4.19,5.03,8.49,9.96,12.7,14.96,4.51,5.35,9.29,10.52,13.29,16.23,1.83,2.61,2.23,6.3,2.96,9.57.51,2.27.48,4.67.69,7.01.57-5.05.37-10.04,0-15.02-.06-.81-.79-1.64-1.38-2.32-9.76-11.28-19.54-22.54-29.32-33.8Zm156.75,140.35c.31.28.63.57.94.85,1.58-1.51,3.16-3.01,4.73-4.52,2.68-2.58,5.36-5.15,8-7.78.43-.42.84-1.13.81-1.69-.15-3.1-.44-6.19-.71-9.61-4.61,7.61-9.19,15.18-13.78,22.76Zm8.58,394.26c-.44-5.95-.82-10.97-1.25-16.84-3.4,4.51-6.24,8.28-9.36,12.41,3.61,1.51,6.73,2.81,10.62,4.43Zm54.63-104.9c.77-.11,1.54-.23,2.31-.34-2.18-14.69-4.37-29.39-6.55-44.08-.46.06-.92.12-1.38.19,1.88,14.74,3.75,29.49,5.63,44.23Zm3.24-73.32c-.3.07-.6.15-.9.22-.52,4.87-1.03,9.74-1.62,15.27,3.94-1.56,6.95-2.76,10.42-4.13-2.77-3.98-5.34-7.67-7.9-11.36Zm-97.93,139.5c2.55-4.51,4.67-8.27,6.98-12.35h-11.96c1.66,4.13,3.15,7.84,4.97,12.35ZM256.92,127.48c.1-2.13.18-3.9.28-6.03-3.92.26-7.51.5-11.1.74v5.3h10.83Zm74.59,21.47c7.45,4.12,14.62,2.45,21.58,2.84-3.12-1.99-5.45-6-10.12-3.5-.89.48-2.26.02-3.4.08-2.38.14-4.75.34-8.05.58Zm2.95-28.13c2.63,0,4.88-.05,7.13,0,4.16.1,4.59-.46,3.49-4.68h-11.44c.33,1.85.59,3.37.82,4.67Zm188.06,318.89l1.95-.3c-1.15-9.93-2.29-19.86-3.44-29.79-.4.05-.81.09-1.21.14,1.39,9.93.13,20.15,2.7,29.95Zm18.36,88.26c-5.28.13-8.7,2.15-10.13,8,4.37-1.26,8.25-2.39,12.4-3.59-1.02-1.99-1.69-3.28-2.27-4.41Zm1.61-346.78c.14-.55.29-1.1.43-1.65-9.02-2.62-18.04-5.25-27.06-7.87.38,1.21,1.03,2.32,1.92,2.58,8.21,2.4,16.47,4.65,24.71,6.94Zm-91.98,350.71c-1.55,2.77-3.13,5.6-4.86,8.7h6.98c1.91-5.9,1.48-7.81-2.12-8.7Zm61.85-416.23c-12.36,8.11-12.73,19.7-11.71,31.72.62-3.42,1.17-6.87,1.32-10.34.26-5.97,1.32-11.52,5.97-15.85,1.47-1.37,2.55-3.16,4.42-5.53Zm17.98,414.68c-3.98,1.15-7.52,2.31-11.15,3.16-2.22.52-2.44,1.52-1.62,3.29,4.95-.62,10.75.82,12.76-6.45ZM376.99,127.57v-20.76c-.65,5.17-1.08,10.39-1.75,15.58-.1.77-1.2,1.56-2.01,2.07-1.47.92-3.06,1.64-4.6,2.44.13.23.26.45.38.68h7.98Zm138,395.59c-2.98,3.92-5.73,7.53-8.8,11.57,3.3-.96,6.07-1.76,8.8-2.55v-9.02Zm-14.07,33.06c-.14.16-.29.31-.43.47,2.64,2.96,5.29,5.93,8.08,9.07,1.04-1.65,1.95-3.09,2.97-4.71-3.63-1.65-7.12-3.24-10.62-4.83Zm-45.21-15.24c3.1.15,5.91.29,8.71.42,0-.24,0-.49,0-.73-2.81-2.17-5.62-4.34-8.71-6.72v7.03Zm96.22-16.51c-3.11.93-5.86,1.75-8.79,2.62.9,1.71,1.46,2.8,2.15,4.11,2.4-2.04,6.98-1.24,6.64-6.73Zm-10.26-43.43c-1.88-2.26-3.6-4.33-5.32-6.4-.2.08-.41.17-.61.25.48,3.61.95,7.22,1.5,11.39,1.69-2,2.92-3.46,4.42-5.25Zm-72.71-115.08c.52.55,1.05,1.1,1.57,1.65,4.78-1.31,9.56-2.6,14.32-3.97.7-.2,1.27-.83,1.9-1.25-.84-.25-1.79-.9-2.5-.7-4.35,1.21-8.64,2.62-12.97,3.92-.74.22-1.55.24-2.33.35Zm86.55,112.42c-.41-3.37-.75-6.21-1.18-9.79-2.04,2.62-3.62,4.65-5.36,6.89,2.12.94,4.06,1.8,6.54,2.9Zm-104.77,45.2c5.56,7.14,12.13,12.89,21.12,15.24-8.21-3.45-15.11-8.71-21.12-15.24Zm63.38,48.04v-9.66c-4.82,5.43-4.82,5.53,0,9.66Zm-174.12-416.26c-4.69-2.37-8.41-4.28-12.16-6.09-.36-.18-1,.22-1.51.34.18.61.18,1.52.58,1.78,3.73,2.41,7.86,3.57,13.09,3.97Zm177.24,388.13c3.02-1.55,5.55-2.84,8.07-4.14-.13-.32-.27-.64-.4-.96-2.55.31-5.09.62-7.67.94v4.17Zm-76.84-33.53c1.7,1.97,3.35,3.9,5.63,6.55-.97-4.06-1.69-7.09-2.54-10.67-1.28,1.71-2.15,2.87-3.09,4.12Zm52.28,37.88c1.58-2.04,3.02-3.91,4.46-5.77-.15-.16-.3-.33-.45-.49-2.39.79-4.79,1.58-7.59,2.51,1.34,1.41,2.35,2.47,3.57,3.75Zm19.11-210.71c.36-.02.72-.05,1.07-.07-.49-5.19-.98-10.38-1.48-15.56l-1.35.14c.58,5.16,1.17,10.33,1.75,15.49Zm3.39,199.13c-.17-.48-.35-.95-.52-1.43-3.8,1.01-7.61,2.03-11.41,3.04.09.33.17.66.26.98,3.72-1.54,8.21,0,11.67-2.6Zm-6.14-221.94c.31-.04.62-.08.93-.12.14-4.12.06-8.21-1.48-12.1-.37.05-.74.1-1.11.15.55,4.03,1.1,8.05,1.65,12.08Zm-29.37,250.75c-1.44-.45-2.47-.77-3.51-1.09-.52,1.99-1.03,3.98-1.55,5.97.37.1.75.21,1.12.31,1.14-1.51,2.29-3.01,3.93-5.19Zm37.67-13.23c1.5-2.46,3-4.92,4.65-7.63-5.56.17-5,3.96-4.65,7.63Zm-5.69-77.22c.35-.22.69-.43,1.04-.65-2.13-3.98-4.25-7.96-6.38-11.95-.34.18-.67.35-1.01.53,2.12,4.02,4.23,8.05,6.35,12.07Zm-21.32,75.14c-2.07-3.28-4.28-6.26-9.12-4.4,3.25,1.57,6.19,2.98,9.12,4.4Zm-1.62-171.61c-2.19,1.61-3.86,2.83-5.53,4.06.18.32.36.65.54.97,1.92-.4,3.84-.79,5.94-1.23-.3-1.21-.52-2.07-.96-3.8Zm-45.19,115.24c.54-2.96.94-5.13,1.47-7.98-1.8,1.13-2.99,1.88-4.38,2.75.96,1.72,1.75,3.15,2.91,5.23Zm76.56,89.07c-1.08-1.24-2.08-2.37-3.58-4.08-.19,2.66-.32,4.55-.5,7.04,1.66-1.21,2.74-2,4.07-2.97Z"/>
  <path class="cls-2" d="m26.43,428.79c-.01-.43.12-.94-.07-1.29-3.59-6.87-7.22-13.71-10.83-20.56-5.03-9.54,4.57-21.51,12.57-22.3,5.19-.51,10.61,1.24,15.91,2.1,2.92.47,5.92.89,8.66,1.91,2.4.89,4.73,2.33,6.69,3.99,8.69,7.37,17.25,14.9,25.83,22.4,11.09,9.7,22.16,19.41,33.21,29.15,1.35,1.19,2.43,1.9,4.5,1.23,1.88-.6,4.1-.13,6.54-.13.4-1.99.79-3.92,1.18-5.9-4.63-.25-7.62,5.5-12.6,2.27,2.96-1.4,5.87-2.9,8.88-4.17,3.06-1.29,4.98-2.88,5.17-6.73.22-4.59,1.53-9.12,2.45-14.15-4.85,1.7-9.25,3.2-13.61,4.79-.58.21-1.28.77-1.45,1.32-1.69,5.19-3.27,10.4-5.08,16.24-13.65-12.17-27.4-24.43-41.42-36.94,2.12-1.02,3.82-1.84,5.52-2.65-.04-.21-.09-.42-.13-.63l-7.33.47-.07,1.01c-5.95-3.43-4.98-10.56-8.41-15.6-3.64.01-7.15,4.27-11.77,1.09,3.75-1.38,7.23-2.65,10.99-4.04-1.43-3.97-2.82-7.8-4.56-12.63-3.02,4.9-5.82,9.12-8.25,13.55-1.06,1.93-1.82,2.28-4.13,1.98-7.53-.96-15.14-2.61-23.45.3,5.41-10.76,10.11-21.1,17.98-29.67,9.81-10.68,21.41-19.15,33.21-27.36,3.96-2.76,6.06-6.44,6.52-10.82.86-8.28,4.77-15.4,7.74-22.89,2.11-5.31,7.12-6.12,11.73-7.29,2.62-.67,3.9-1.73,3.2-4.84-1.25.58-2.41,1.11-4.08,1.89-5.24-9.15-14.59-10.59-23.84-12.08-4.64-.75-9.34-1.15-14.01-1.7-.69-.08-1.39-.06-2.06-.21-4.58-.99-7.65-3.98-7.55-7.33.1-3.36,2.74-5.38,7.86-6.32,6.88-1.27,13.22.18,19.23,3.52,3.33,1.85,7.06,1.58,9.84-.76-4.18-3.15-4.65-14.9-2.58-18.63,3.77-6.79,11.11-10.08,19.87-8.44-.63.83-1.06,1.51-1.6,2.08-2.73,2.92-5.83,5.57-8.14,8.79-3.02,4.2-1.58,8.45,1.06,12.46.75,1.13,1.03,2.57,1.6,4.06,1.35.06,3.34.16,5.15.24-1.04-1.16-2.15-2.5-3.36-3.74-4.88-5.03-4.69-10.85-.22-16.21,6.75-8.1,14.97-11.33,25.6-11.23,13.14.12,25.77,2.61,38.42,5.41,12.29,2.72,24.65,5.26,36.72,8.76,8.76,2.54,17.09,6.57,25.66,9.77,1.68.63,3.66.82,5.46.7,3.27-.23,6.52-.85,10.39-1.4-.62.97-.8,1.56-1.2,1.82-4.66,2.99-4.15,7.16-2.66,11.52,2.67,7.83,2.92,15.97,3.02,24.11.06,5.09-2.18,7.24-7.35,7.33-2.86.05-5.73,0-8.75.46.4.17.81.35,1.45.63-.84.74-1.6,1.41-1.86,1.65,5.24.32,10.81.54,16.35,1.04,8.09.73,16.15,1.98,24.26,2.41,4.86.26,8.66,1.47,11.1,5.88.36.65,1.24,1.02,1.86,1.53-1.02,1.01-1.93,2.15-3.05,3-5.76,4.35-12.14,8.04-17.2,13.08-5.26,5.23-9.79,10.99-16.58,14.57-3.86,2.03-8.08,4.83-5.06,10.59.05.09,0,.23,0,.34-.12,6.39,2.09,11.24,8.68,13.25.76.23,1.53.53,2.19.96,8.52,5.63,19.16,7.68,26.6,15.54.14-.79.06-1.48-.3-1.95-1.57-2.03-3.5-3.83-4.76-6.02-2.15-3.73-4.7-6.58-9.06-7.85-4.37-1.27-8.57-3.12-12.83-4.78-5.85-2.28-9.91-8.46-8.02-14.23.98-3.01,4.28-5.87,7.25-7.47,3.5-1.88,6.75-3.66,9.1-6.93,1.13-1.58,2.3-3.24,3.78-4.45,5.85-4.78,11.8-9.45,17.79-14.06,1.27-.98,2.59-1.68,1.41-3.52-.21-1.04-.43-2.09-.64-3.13,1.09-.18,2.19-.58,3.26-.49,11.38.96,22.51,3.72,34.12,3.51,5.6-.1,10.87-1.53,16.16-2.34,4.95-.76,9.33-4.94,14.1-7.34,2.26-1.13,4.82-1.75,7.29-2.36,2.52-.62,5.19-.73,7.66-1.48,3.81-1.15,7.38-2.37,11.53-.86,1.87.68,4.46.11,6.5-.56,10.52-3.48,17.21-11.3,20.15-21.4,1.7-5.82.29-12.53.37-18.83.1-7.31.29-14.62.45-21.93.34,0,.68,0,1.02-.01,2.15,10.63,4.3,21.25,6.44,31.88,2.48,12.3,4.95,24.59,7.4,36.9.16.78.4,1.68.17,2.37-1.7,4.99-2.53,10.39-6.04,14.58-.66.79-2.25,1.32-3.31,1.18-5.97-.75-11.91-1.74-18.18-2.69-.69-3,1.45-7.4-3.38-10.7-1.25,2.31-2.72,4.41-3.56,6.73-1.92,5.28-2.2,5.59-7.86,5.52-3.8-.05-7.62.11-11.41-.08-2.52-.12-3.77.83-4.36,3.26-2.93,12.19-5.91,24.37-8.96,36.53-2.75,10.94-5.75,21.83-8.39,32.8-1.01,4.2-3.93,3.67-7.24,3.35-.81,4.82-1.3,9.53-2.45,14.08-.97,3.84-2.24,7.76-4.18,11.18-9.56,16.82-19.12,33.64-29.22,50.14-5.56,9.08-12.13,17.55-18.37,26.21-.89,1.24-2.46,2-3.71,2.99.34.43.69.85,1.03,1.28,3.58-2.48,7.41-4.69,10.71-7.51,9.24-7.9,15.72-18.04,21.25-28.66,5.65-10.85,10.06-22.35,15.82-33.14,5.23-9.78,11.62-18.94,17.33-28.47,2.42-4.04,5.98-3.23,9.55-2.91,4.91.44,9.82.88,14.73,1.3,2.97.26,5.94.49,9.5.78-.2,1.7-.23,3.24-.56,4.72-2.48,11.09-.67,14.49,10.08,18.34-1.68,4.67-3.76,9.26-4.97,14.06-2.7,10.71-5.1,21.5-7.33,32.32-1.03,5.03-1.32,10.21-2.05,15.3-.77,5.43.17,6.71,5.68,6.61,2.15-.04,3.28.53,3.47,2.7.13,1.6.32,3.19.45,4.78.62,7.89,1.23,15.78,1.85,23.66.03.34.27.76.14,1-1.93,3.51-3.88,7.01-5.88,10.49-2.45,4.25-6.28,3.98-10.53,3.69-10.9-.74-21.84-1.35-32.76-1.37-12.63-.03-24.59-2.31-36.16-7.49-6.99-3.13-14.43-5.25-21.64-7.9-3.44-1.27-6.88-2.57-10.2-4.12-4.98-2.32-5.23-3.19-3.21-8.37-.35,0-.7-.11-.92.02-13.32,7.11-27.81,4.73-41.89,4.76-11.94.03-23.87-1.54-35.82-1.88-13.03-.37-24.1-5.87-34.84-12.34-4.19-2.52-8.44-4-13.35-3.68-1.54.1-3.12-.39-4.87-.63,2.72,2.93,31.84,14.74,40.58,16.48-2.98,7.84-7.44,14.73-12.57,21.12-5.11,6.36-10.76,12.31-16.16,18.43.24.33.49.67.73,1,1.49-.93,3.31-1.56,4.4-2.83,6-6.95,12.11-13.84,17.58-21.19,3.26-4.37,5.37-9.59,8.12-14.36.46-.79,1.6-1.76,2.37-1.71,4.57.27,9.12.82,14.45,1.35-3.74,6.77-7.01,13.47-10.97,19.74-11.37,18-25.92,32.66-45.94,40.93-25.76,10.64-50.07,7.05-72.36-9.07-21.54-15.58-34.13-37.53-41.95-62.48-4-12.75-6.02-25.83-7.14-39.16-.98-11.69-.22-23.18,1.5-34.68,1.12-7.51,2.27-15.02,3.4-22.53l.92-.02c2.45,4.92,4.76,9.92,7.4,14.74,1.29,2.36,3.2,4.38,4.84,6.55,2.75,2.9,5.22,6.24,9.43,6.94.18-.27.35-.55.53-.82-3.35-2.01-6.7-4.02-10.06-6.03Zm169.66-38.16s.11-.14.11-.14c-1.63,2.29-3.41,4.49-4.86,6.89-4.19,6.96-8,14.16-12.43,20.95-4.09,6.27-3.69,12.91-3.27,20.04h10.5c.35-3.5.51-6.93,1.07-10.29,1.82-11,6.05-21.01,14.38-28.57,7.06-6.41,15.03-11.35,25.43-8.39.69.2,2.07-.5,2.52-1.18,4.88-7.43,9.64-14.95,14.42-22.41-3.18-2.11-6.12-4.05-9.07-6-.22-.38-.44-.76-.66-1.14-.43-4.41-.86-8.81-1.28-13.22-.3,0-.59.01-.89.02-.48.63-.96,1.25-1.44,1.88-.35.43-.71.87-1.06,1.3-4.01,4.7-8.02,9.4-12.02,14.1l-8.92,10.04c-4.18,5.37-8.36,10.74-12.54,16.11Zm-165.04,16.28c7.18,6.21,14.11,12.21,21.21,18.35,1.98-2.96,3.64-2.13,6.01-.14,9.66,8.11,19.56,15.95,29.42,23.93,2.49-3.91,3.4-3.97,6.62-1.37,2.66,2.14,5.49,4.06,8.47,6.24,1.44-3.27,3.14-4.06,5.66-1.37,1.15,1.23,2.74,2.04,4.31,3.17,3.06-4.97,5.53,0,8.95.73-.93-1.05-1.36-1.68-1.92-2.15-6.16-5.17-12.34-10.31-18.51-15.47-15.05-12.59-30.09-25.2-45.17-37.76-3.09-2.57-6.25-5.07-9.53-7.38-2.13-1.5-4.26-1.47-6.62.25-4.53,3.29-6.75,7.97-8.9,12.98Zm286.15-10.47c-.24.55-.56,1.02-.66,1.53-2.32,12.35-7.58,23.43-14.41,33.88-7.77,11.91-15.68,23.75-22.95,35.96-4.57,7.69-9.18,15.34-16.32,20.72-9.34,7.04-19.31,12.87-31.89,12.09-16.05-.99-32.14-1.26-48.19-2.27-7.24-.46-14.84.51-21.56-3.36-3.26-1.88-6.5-3.83-9.54-6.04-4.01-2.93-5.31-3.01-7.95.37,5.54,3.44,11.06,6.91,16.62,10.29.85.52,1.91.87,2.91.96,7.87.75,15.73,1.6,23.62,2.06,11.49.66,22.99.92,34.48,1.53,10.78.57,21.44,1.98,31.79-3.33,6.6-3.39,13.45-6.36,17.83-12.45,7.22-10.06,14.19-20.34,20.7-30.88,6.14-9.94,10.98-20.71,17.46-30.41,5.29-7.93,8.46-16.38,10.68-25.42.6-2.43.13-4.25-2.62-5.24Zm-155.84,71.03h-15.88c1.89,3.57,3.89,6.33,4.86,9.41,1.4,4.44,3.73,7.73,7.94,9.75,1.23.59,2.33,1.49,3.39,2.37,3.42,2.85,7.39,3.82,11.77,4.05,6.06.33,12.11,1.03,18.16,1.63,7.97.79,15.93,1.7,23.91,2.45,4.46.42,9.02.23,13.4,1.03,7.45,1.36,13.99-.63,20.96-4.53-1.61-.32-2.58-.55-3.56-.7-4.29-.64-8.6-1.17-12.88-1.89-6.87-1.15-13.72-2.43-20.57-3.64-5.71-1-11.44-1.87-17.1-3.08-.91-.19-2.06-1.81-2.14-2.83-.12-1.76.72-3.57.8-5.37.14-3.18,2.11-3.42,4.5-3.11.76.1,1.49.4,2.23.6-12.33-7.5-16.15-19.01-15.36-32.86h-8.43c.19,1.23.1,2.62.64,3.7,1.86,3.77,4.09,7.36,5.89,11.15,1.5,3.17,3.09,6.45,3.71,9.85.41,2.23,1.08,3.66,2.76,5.06,3.24,2.7,3.08,5.48.49,8.88-1.23,1.61-1.61,3.9-2.24,5.92-.47,1.51-.52,3.18-1.11,4.63-1.42,3.47-2.86,3.58-6.09,1.71-2.36-1.37-5.11-2.42-7.8-2.76-4.16-.53-7.49-1.91-9.68-5.62-.58-.98-1.23-1.96-2.02-2.77-5.83-6.01-5.87-6.45-.54-13.01Zm160.94-87c4.81-22.45,9.59-44.77,14.57-68.02-3.96-.57-7.59-1.29-11.26-1.56-3.35-.25-5.68,2.54-5.4,5.87.08.99,0,2.01-.13,3-.47,3.86-1.26,7.69-1.44,11.56-.41,8.5-.47,17.02-.77,25.53-.1,2.86-.04,5.84-.84,8.52-1.89,6.31.16,11.01,5.28,15.1Zm-206.69-71.23c-1.9,2.14-4.58,4.27-6.07,7.04-2.18,4.07-3.77,8.53-5.14,12.96-1.67,5.36-5.23,10.49-3.07,16.49.74,2.05,2.25,3.83,3.02,5.09-4.23-.71-8.96-1.5-13.91-2.33-.34,4.83-.56,8.72-.9,12.6-.17,1.98.54,2.96,2.58,3.21,3.06.37,6.1.9,9.13,1.46,5.91,1.08,9.16-.67,11.21-6.12.47-1.26.63-2.59,2.77-1.9,7.11,2.29,14.23,4.6,21.46,6.46,9.85,2.53,19.86,4.47,28.22,10.84.29.22.79.16,2.36.42-1.68-2.24-2.55-3.95-3.9-5.1-2.86-2.44-6.44-2.83-10.08-3.61-14.83-3.2-29.48-7.15-43.05-14.27-5.64-2.96-7.76-6.67-6.69-12.89.33-1.9.95-3.78,1.69-5.57,3.46-8.38,7-16.73,10.38-24.78Zm137.32,93.75c5.25-3.61,9.99-6.94,14.81-10.15,3.16-2.1,4.28-7.96,2.01-10.83-4.36-5.52-10.98-6.89-16.99-9.69-3.52,5.66-6.9,11.08-10.32,16.57.46.61.88,1.14,1.28,1.68,1.8,2.48,5.86,3.92,3.77,8.23-.11.23.52.98.95,1.28,1.68,1.16,3.41,2.23,4.49,2.92Zm-8.24,76.78l-.16.92c6.51.87,13.02,1.8,19.54,2.55.82.09,2.1-.54,2.56-1.24,6.24-9.36,12.38-18.79,18.18-27.67-5.24-1.27-9.97-2.33-14.64-3.56-4.79-1.26-9.53-2.69-14.15-4.01-.8,2.83-1.76,5.74-2.42,8.71-.67,2.99-.72,6.15-1.65,9.04-.68,2.13-2.11,3.97-5.21,3.08-2.63-.75-5.45-.82-7.95-1.16,7.54,5.05,13.34,3.91,15.32-5.06.97-4.41,1.84-8.83,2.77-13.28,3.73,1.15,7.05,2.18,10.84,3.35-2.54,7.94-4.12,16.14-8.95,23.14-2.13,3.08-5.13,4.88-8.91,5.15-1.71.12-3.44.02-5.16.02Zm-121.46,15.51c-25.77-17.88-51.35-35.62-77.54-53.78v8.59c1.28-.07,2.58.09,3.75-.24,3.38-.96,6.11-.12,8.94,1.95,8.24,6.04,16.64,11.86,25.03,17.7,5.71,3.97,11.5,7.82,17.31,11.77-1.9,2.36-5.82,2.46-5.04,6.59.5,2.63-1.93,5.63.8,8.38,3.44-3.61,8.54-5.54,8.73-11.69,1.61,1.16,2.96,2.13,3.75,2.69-1.03,2.55-2.16,4.62-2.69,6.84-.73,3.1-.68,6.4-1.57,9.44-1.26,4.28,1.35,6.35,3.86,8.76,1.67-4.61,3.41-8.95,4.81-13.4.76-2.42.97-5.01,1.53-8.05,1.82,3.02,3.67,6.09,5.6,9.29.86-1.53,1.69-2.99,2.72-4.82Zm135.18-138.85c2.98-3.02,5.89-5.84,8.64-8.82,2.28-2.47,5.03-3.67,9.26-4.05-.59,4.28-1.11,8.08-1.64,11.99,2.01-.11,3.38-.28,4.73-.23,2.53.08,4.18-.79,4.51-3.53.61-5.19,1.27-10.38,1.93-15.71q-3.19.41-9.22-11.79c4.39-4.6,8.82-9.23,13.25-13.87-3.09,1.92-5.91,4.21-8.11,6.99-4.09,5.15-8.96,7.95-15.7,6.97-.85-.12-1.83.65-2.75,1,.08.24.15.47.23.71,1.63-.16,3.27-.32,4.89-.48,2.73,17.74-5.2,25.59-17.51,30.87-.38,2.75.84,4.24,3.5,5.02,3.05.89,6.01,2.1,9.14,3.23,1.27-1.68,2.5-3.32,4.22-5.59-3.43-.99-6.5-1.88-9.35-2.71Zm14.38,85.25c4.01,1.13,8.03,2.41,12.12,3.35,2.83.65,5.63.82,7.11-2.77.68-1.65,2.18-2.93,3.21-4.45,3.62-5.33,7.19-10.69,11.12-16.55-15.03,1.72-28.56,4.13-33.56,20.43Zm-163.39-72.36c-3.23.45-5.79.54-8.2,1.19-3.07.84-5.96,2.39-9.05,3.16-2.8.71-3.43,2.16-3.37,4.86.08,4.24-.37,8.49-.55,12.73-.07,1.55-.01,3.11-.01,4.85,1.86,0,3.24,0,4.61,0,8.61,0,8.64.01,11.13-8.23,1.77-5.85,3.44-11.73,5.44-18.58Zm184.14-26.69c1.39-3,2.53-5.84,4.04-8.48.45-.78,2.6-1.58,2.84-1.32,3.64,3.93,7.22,2.22,11.1.43,5.51-2.53,6-4.17,1.21-7.99-4.99-3.98-10.34-7.5-15.82-11.43-.6,1.31-.96,1.99-1.23,2.71-2.09,5.55-4.16,11.1-6.23,16.66-1.95,5.23-1.08,7.2,4.09,9.43Zm-212.93,142.72c-3.58,9.97-7.24,20.04-10.76,30.15-.22.63.43,2,1.06,2.38.62.37,2.04.25,2.58-.24,5.91-5.29,11.84-10.59,17.45-16.18,1.13-1.13,1.48-3.59,1.31-5.35-.37-3.85-7.14-10.06-11.65-10.75Zm5.84-119.48c-6.77-1.24-13.58-2.57-20.42-3.7-2.92-.48-7.05,3.46-6.24,5.9,1.39,4.18,3.03,8.28,4.66,12.66,5.95-2.12,11.65-4.12,17.32-6.18,5.51-2,5.67-2.34,4.67-8.68Zm101.18-53.67c-3.3,7.52-6.41,14.74-9.62,21.91-3.82,8.55-7.9,16.99-11.5,25.63-1.36,3.27-2.61,6.06-7.07,6.06,2.13,1.48,3.75,2.61,5.44,3.78.96-2.91,1.61-5.72,2.78-8.29,5.34-11.77,10.85-23.46,16.23-35.21,1.62-3.53,3.21-7.08,4.46-10.75.89-2.61.42-4.77-2.97-5.67-9.13-2.44-18.17-5.19-27.26-7.76-2.08-.59-4.21-.96-6.32-1.42-2.08-.45-4.17-.89-6.25-1.34,10.28,2.96,17.68,9.06,21.92,18.75,4.37-1.75,8.53-3.32,12.59-5.13.92-.41,1.46-1.68,2.38-2.81,1.18.51,2.83,1.23,5.19,2.25Zm126.83,84.12c-.54-2.87-1.11-4.94-1.29-7.04-.2-2.29-.03-4.61-.05-6.92-.03-2.78-2.11-4.46-4.61-3.3-1.88.87-3.69,2.3-5.03,3.9-6.28,7.53-10.31,17.03-19.65,21.91,10.73-1.95,21.14-4.46,30.62-8.55Zm-145.37,42.53c.48.09.96.17,1.44.26.25-1.01.69-2.01.71-3.03.19-8.17.62-16.5,4.5-23.73,6.99-13.04,14.6-25.74,24.28-37.08,7.13-8.35,13.97-16.96,20.94-25.45-2.46.25-5.15.57-6.81,2.04-3.07,2.72-5.62,6.06-8.24,9.26-3.55,4.34-7.35,8.54-10.37,13.24-5.14,8-9.79,16.31-14.57,24.54-4.94,8.49-12.14,16.09-10.83,27.09.01.1-.09.22-.1.33-.32,4.19-.64,8.37-.96,12.56Zm-83.63-42.73c.3-6.89.59-13.36.89-20.3-7.41,2.66-14.19,5.09-21,7.54,1.45,3.87,2.68,7.43,4.15,10.88.35.81,1.51,1.77,2.34,1.8,4.36.18,8.72.08,13.61.08Zm151.51,47.53c1.33-7.58,5.23-14.07,5.31-21.97-7.45,1.82-14.03,3.43-20.19,4.93-.4,2.67-.89,4.69-.93,6.73-.02.92.59,2.29,1.33,2.7,4.57,2.56,9.25,4.9,14.47,7.61Zm-199.63,90.37c-.37.25-.74.51-1.11.76.29,1,.4,2.11.9,2.99,5.75,10.07,13.93,17.61,24.23,22.85,14.45,7.36,29.72,10.82,45.85,8.33,6.11-.95,12.01-3.38,17.93-5.36,1.3-.43,2.29-1.79,3.42-2.72-.24-.47-.47-.94-.71-1.41-7.77,4.01-15.93,6.45-24.53,7.25-8.68.8-17.19-.35-25.54-2.55-8.48-2.24-16.2-6.12-23.47-11.09-7.22-4.94-11.99-12.05-16.97-19.05Zm178.97-238.63c.04-.21.07-.42.11-.63-31.15-6.83-62.3-13.66-93.41-20.48v5.31c31.34,5.31,62.32,10.56,93.3,15.81ZM24.4,449.26c-.55.04-1.11.08-1.66.13-.33,1.31-.95,2.62-.93,3.91.07,4.13.43,8.26.6,12.39.52,12.6,3.72,24.61,8.33,36.24,4.38,11.03,9.81,21.52,17.84,30.42.92,1.02,2.38,1.56,3.6,2.32.28-.33.55-.66.83-.99-20.59-24.31-29.23-52.76-28.61-84.42Zm118.31,61.65c-.25-.3-.5-.6-.75-.9-.85.64-2.06,1.09-2.48,1.94-5.8,11.77-14.23,21.34-24.21,29.69-10.09,8.44-21.62,11.1-34.4,8.9-3.51-.6-6.94-1.63-10.41-2.47-.18.33-.36.65-.54.98.59.64,1.06,1.6,1.79,1.88,9.25,3.49,18.76,4.19,28.34,1.86,8.98-2.18,16.02-7.74,22.62-13.92,8.55-8.01,15.21-17.33,20.04-27.97Zm2.81-26.88c.28-.2.55-.4.83-.6-2.95-3.98-5.72-8.11-8.97-11.83-.96-1.09-3.41-1.64-4.95-1.32-4.29.89-7.63,3.34-9.29,7.49,6.26,3.63,12.34,7.16,18.3,10.61,1.6-1.7,2.84-3.02,4.08-4.34Zm85.76-23.88c-5.88-5.36-11.17-10.18-17.04-15.54-.89,1.86-2.34,3.42-2.06,4.56,1.42,5.84,3.34,11.56,4.99,17.36.72,2.53,2.13,2.8,4.01,1.41,3.35-2.48,6.62-5.09,10.11-7.79Zm-4.82-66.37c-4.15,6.86-7.61,12.59-10.73,17.74,1.35,1.7,2.4,3.02,3.47,4.37,6.08-3.63,12.01-7.18,18.86-11.27-4.01-3.75-7.6-7.1-11.6-10.83Zm-85.32-78.67c-8.22-.02-14.2,5.84-14.22,13.93-.02,8,6.14,14.43,13.91,14.51,7.67.08,14.58-6.46,14.47-14.1-.13-9.21-8.2-14.99-14.16-14.34Zm-36.98,81.51c4.2-2.02,7.58-3.62,10.92-5.3.56-.28,1.21-.88,1.33-1.43,1.25-5.87,2.4-11.75,3.62-17.79-2.84-.44-5.39-.84-8.12-1.26-2.55,8.5-5.03,16.73-7.75,25.78Zm16.76,21.75c4.7-1.57,8.78-2.91,12.82-4.33.57-.2,1.34-.77,1.43-1.28.8-4.53,1.47-9.07,2.2-13.8h-10.17c-2.03,6.29-4.05,12.53-6.28,19.41Zm93.03-69.59c-6.5-3.06-11.07-.3-11.57,6.26-.06.75-.51,1.47-.77,2.21-.62-.56-1.49-1.01-1.83-1.71-1.94-4-3.77-8.06-5.61-12.12-2.12-4.67-2.36-9.43.36-13.84,2.82-4.57,5.84-9.07,9.23-13.23,3.48-4.27,7.51-8.08,11.33-12.12-.29.09-.62.12-.88.28-9.5,5.85-15.65,14.72-21.27,23.99-1.11,1.84-1.57,4.34-1.59,6.54-.11,9.26,4.68,16.7,9.31,24.45-1.43,2.61-3.04,5.55-4.65,8.49.18.1.36.21.54.31,5.71-6.4,11.42-12.8,17.4-19.51Zm-121.56-7.95c-1.08,0-1.43,0-1.77,0-16.93.52-39.58,16.87-45.3,32.77-.27.74.15,1.73.24,2.61.73-.53,1.72-.91,2.15-1.62,4.87-8.13,10.26-15.91,18.14-21.35,9.14-6.3,18.89-11.22,30.64-9.13.51.09,1.14-.46,1.72-.71-.47-.65-.84-1.7-1.45-1.88-1.64-.46-3.39-.55-4.37-.69Zm-25.41,173.78c3.71-10.08,7.34-19.95,11.13-30.24-2.5.96-4.73,2.04-7.09,2.67-3.22.86-4.06,3.02-4.36,6.01-.46,4.64-1.49,9.23-1.83,13.87-.19,2.56-1.76,5.79,2.15,7.69Zm36.82-233.86c1.69,6.27-1.24,8.46-6.17,9.02-.11.01-.2.11-.3.16-2.89,1.18-3.41,3.02-.83,4.66,2.5,1.59,5.58,2.28,8.44,3.26.41.14,1.28-.14,1.51-.5,3.17-4.84,6.27-9.73,9.29-14.45-3.78-.68-7.4-1.33-11.93-2.14Zm39.71,151.96c-.93.32-1.57.48-2.15.76-2.16,1.04-5.11,1.58-6.26,3.31-1.54,2.33-1.71,5.58-2.39,8.45-.03.13.68.58,1.08.63,3.5.49,7,1.05,10.51,1.33,5.1.41,10.22.57,15.33.91,2.44.17,4.88.52,7.46.8-.12-3.48-2.35-2.85-4.01-2.99-6.46-.53-12.92-1-19.59-1.51v-11.7Zm144.11-90.38c-.18,1.17-.56,2.63-.56,4.09,0,.82.44,2.17,1.02,2.39,4.41,1.66,3.33,4.54,1.95,7.6-.46,1.03-1.05,2.12-1.08,3.19-.02.84.53,2.2,1.17,2.46,2.93,1.16,5.99,2.01,9.18,3.03.27-6.28-.29-12.65-3.55-18.53-.36-.64-.92-1.33-1.56-1.62-2.1-.95-4.27-1.72-6.58-2.62Zm-83.82,126.73c0-6.68-.2-12.65.08-18.6.15-3.2-1.39-4.69-3.91-6.02-2.09,4.03-4.13,7.85-6.03,11.74-.41.85-.76,2.18-.38,2.89,2.24,4.16,5.27,7.61,10.24,9.99Zm-117.17-105.89c.31-4.88.59-9.18.89-13.8-8.01,1.04-14.43,4.54-20.7,10,6.85,1.32,13.14,2.52,19.81,3.8Zm201.59,86.15c-.1-.37-.19-.73-.29-1.1-10.32-2.76-20.96-4.68-30.09-11.36-.35,1.08-.49,2-.91,2.77-1.68,3.05-.67,4.68,2.5,5.74,8.1,2.7,16.13,5.68,24.85,5.38,1.33-.05,2.63-.93,3.94-1.42Zm-270.53-25.37c-.58-.04-1.15-.08-1.73-.12-.37,1-1.01,1.98-1.08,3-.76,11.19-1.92,22.39-1.96,33.59-.03,7.25,1.56,14.51,2.56,21.75.14,1.01,1.08,1.91,1.65,2.87.44-.16.88-.32,1.32-.48-3.97-20.13-3.66-40.35-.77-60.61Zm220.79,21.65c.19.29.38.58.57.87,1.49-1.05,3.27-1.86,4.41-3.21,1.98-2.33,3.77-4.88,5.28-7.54,2.13-3.77,3.94-7.73,5.98-11.79-3.07-1.07-5.32-1.86-8.17-2.85-2.71,8.23-5.39,16.38-8.07,24.52Zm-146.62,60.3c-.28-.09-.55-.18-.83-.27-5.32,4.8-10.64,9.59-16.16,14.57,5.26,2.58,10.48,3.25,16.03,2.35.33-5.75.65-11.2.96-16.65Zm18.49-87.62c1.36-6.4,2.71-12.77,4.13-19.45-2.26,0-4.2,0-6.14,0-.57,0-1.15-.04-1.72.03-3.44.46-6.32,5.56-4.53,8.05,2.64,3.68,5.33,7.34,8.26,11.37Zm17.51-163.86c0,.52-.02,1.04-.03,1.56,17.05,6.42,35,8.83,52.94,11.53-.93-1.25-2.04-1.92-3.24-2.21-15.5-3.72-31.01-7.4-46.53-11.03-.98-.23-2.09.08-3.14.15Zm31.17,132.72c-.4.03-.8.05-1.19.08-.06,1.23-.27,2.48-.15,3.69.78,7.62,1.91,15.21,2.37,22.84.44,7.35.14,14.75.34,22.12.03,1.26.96,2.5,1.47,3.75.37-1.18,1.04-2.36,1.06-3.55.09-8.41.42-16.85-.07-25.24-.44-7.51-1.82-14.97-2.84-22.44-.06-.46-.65-.84-.99-1.26Zm-91.77-47.86c-2.64-1.48-4.13.77-5.45,2.02-5.59,5.29-11.38,10.46-16.28,16.36-4.29,5.17-7.54,11.21-11.08,16.97-.5.81,0,2.22.02,3.35.82-.7,1.84-1.26,2.43-2.12,4.4-6.4,8.25-13.25,13.18-19.21,5.09-6.14,11.22-11.43,17.18-17.38Zm117.46,151.64c.66-2.27,1.17-4.18,1.79-6.05.77-2.32,1.13-5.02,2.58-6.81,2.17-2.67,1.85-4.51-.64-6.3-2.13-1.53-3.18-3.5-3.32-6.08-.29-5.16-2.78-9.21-6.65-13.15-.41,1.87-1.38,3.55-.92,4.62,2.31,5.44,1.72,12.53,8.72,15.43,1.64.68,3.13,2.36,1.8,4.49-2.34,3.73-3.03,8.99-8.71,9.75-.07,0-.13.14-.19.23,1.66,1.16,3.32,2.31,5.54,3.87Zm51.29-26.66c-6.05,4.01-11.68,7.75-16.58,11,6.69,1.15,14.28,2.45,21.86,3.75-7.2-3.1-4.05-10.14-5.28-14.75Zm-123.54-42.75c2.23-1.01,4.81-1.35,5.25-2.5,2.45-6.51,4.39-13.22,6.61-20.19-1.2,0-1.9.09-2.56-.02-3.48-.56-4.95.63-5.44,4.39-.76,5.84-2.39,11.57-3.86,18.31Zm-59.97,73.53c3.02,4.98,5.81,9.58,8.59,14.18,1.18-3.38,1.71-6.4,2.1-9.44.4-3.12.68-6.25,1.07-9.89-4.04,1.77-7.55,3.3-11.76,5.15Zm66.77-105.67c3.03-1.5,5.46-2.54,7.71-3.87,1.08-.64,2.22-1.67,2.67-2.79,2.24-5.67.07-8.8-6.81-9.83-1.14,5.26-2.28,10.54-3.57,16.49Zm-54.05,90.2c-3.87.8-7.52,1.52-11.15,2.33-.44.1-1.04.59-1.12.99-.61,3.03-1.1,6.09-1.78,9.96,3.58-1.62,6.23-2.85,8.91-4.03q5.55-2.44,5.14-9.25Zm69.11-45.73c3.07-1.49,5.35-2.53,7.55-3.71.62-.33,1.49-1.11,1.45-1.62-.37-4.72-.91-9.42-1.49-15-1.97,1.38-4.11,2.07-4.38,3.2-1.28,5.4-2.05,10.92-3.13,17.13Zm3.84-73.66c1.1.71,1.51,1.15,1.99,1.26,4.2,1,8.49,1.72,12.61,2.98,2.08.63,3.33.26,4.22-1.48,2.26-4.41,4.42-8.88,6.62-13.32-6.96,6.91-14.81,11.02-25.44,10.56Zm52.73,59.71c-1.04,6.87-1.97,13.02-3.01,19.93,11.62-6.96,12.41-11.8,3.01-19.93Zm-145.47,43.93c2.09.28,4.08.64,6.09.75.62.03,1.76-.55,1.84-.99.63-3.72,1.07-7.48,1.63-11.7-3.51.33-6.51.61-9.55.89v11.05Zm49.37,37.42c-.35,6.86-.7,13.73-1.06,20.72,5.03-1.06,5.17-1.2,5.59-5.41.07-.68.08-1.4.35-2.01,2.43-5.44.3-9.58-4.88-13.31Zm107.99-86.5c1.82-1.63,3.82-2.57,4.32-4.02,1.64-4.76,2.73-9.71,4.03-14.59l-.96-.83c-3.11,2.74-6.82,5.07-9.09,8.39-1.09,1.59.55,5.05.98,7.66.14.87.37,1.74.72,3.39Zm-149.11,64.33c3.79-.74,7.27-1.23,10.62-2.19.96-.27,2.2-1.9,2.16-2.86-.13-3.24-7.24-7.19-10.28-5.88-.51.22-1.02.94-1.12,1.51-.52,2.99-.9,6.01-1.39,9.42Zm65.92-125c-6.19-6.31-9.67-13.7-11.03-22.27-1.2,3.09-2.37,6.07-2.95,9.17-.6,3.23.27,6.34,3.34,8.04,3.43,1.9,7.09,3.4,10.64,5.07Zm35.11,55.38c2.53-4.36-4.82-33.51-9.35-37.65-.36.57-1.08,1.22-.97,1.64,3.36,11.91,6.8,23.8,10.32,36.02Zm160.9-75.61c-2.78,1.27-5.52,2.36-8.08,3.79-.73.41-1.36,1.84-1.27,2.72.27,2.5.94,4.96,1.45,7.44.31-.06.61-.12.92-.18-.34-1.75-.68-3.5-1.06-5.47,2.75,1.66,5.03,3.03,8.03,4.84v-13.14Zm-120.44-64.49c-.26.45-.52.9-.78,1.35.96.57,1.85,1.45,2.89,1.67,6.67,1.42,13.35,2.82,20.07,3.94,2.46.41,5.05.15,7.56-.06.58-.05,1.07-1.13,1.61-1.74-.54-.29-1.06-.78-1.63-.84-5.27-.5-10.59-.69-15.83-1.44-4.67-.66-9.26-1.91-13.89-2.9Zm63.41,61.59c2.86,2.55,3.52,5.96,1.61,8.27-1.76,2.12-3.89,1.94-7.51-.38.49,2.09.9,4.72,2.4,5.71,2.16,1.43,4.65.05,6.45-1.8,2.55-2.62,3.64-5.77,3.17-9.42-.42-3.26-3.21-4.34-6.12-2.38Zm-155.19-2.32l-.19-1.18c-10.26-3.01-19.07,2.04-28.1,5.72-.69.28-1.02,1.45-1.52,2.21.25.27.49.53.74.8,4.73-1.88,9.33-4.22,14.22-5.49,4.8-1.25,9.89-1.42,14.85-2.06Zm129.25,60.72c9.97-3.18,11.37-12.7,16.04-20.03-1.21-.23-2.8-.39-3.22.24-4.32,6.43-8.46,12.99-12.82,19.8Zm-68.03,79.28c-5.86,2.79-5.48,5.52-3.59,8.22,1.63,2.32,3.74,4.3,5.64,6.42,2.82,3.17,6.38,3.83,10.6,2.97-6.56-4.16-16.36-5.83-12.65-17.62Zm-83.9-146.13c5.48-1.43,10.67-2.79,15.1-3.95-4.03-1.76-8.51-3.72-12.89-5.63-.68,2.94-1.43,6.2-2.21,9.58Zm197.32,46.6c1.32-3.57,2.76-7.43,4.37-11.8-3.4.3-6.14.37-8.77.92-.51.11-1.22,2.43-.81,3.17,1.45,2.63,3.34,5.01,5.21,7.71Zm-225.33,98.51c-2.52-.29-4.5-.52-7.08-.81.83,4.68,1.6,8.99,2.36,13.3.42.05.84.1,1.26.14,3.2-3.43,2.28-8.18,3.45-12.63Zm85.05-71.65c-1.31-3.67-2.5-7.02-3.85-10.79-4.71,2.64-3.71,7.3-5.95,10.79h9.8Zm-103.12-4.87c-6.39-2.55-14.12-3.32-15.48,3.36,5.53.29,10.67-.75,15.48-3.36Zm245.01-82.09c1.78,3.26.38,4.88-2.14,6.37-3.05,1.81-5.86,4.02-8.78,6.06,9.52.87,11.75-7.93,17.31-12.43h-6.38Zm-137.03-10.25c-3.6-.9-7.18-1.85-10.8-2.65-.76-.17-1.83-.05-2.42.4-1.82,1.38-3.55,2.89-5.18,4.5-1.62,1.6-3.07,3.38-4.59,5.09,6.7-5.37,14.38-7.59,22.98-7.33Zm34.98,150.61c-.32-.8-.46-1.21-.63-1.6-.73-1.66-1.24-3.49-2.3-4.9-.67-.88-2.14-1.31-3.33-1.58-.49-.11-1.45.61-1.77,1.18-1.84,3.25-.17,6.51,3.49,6.88,1.34.13,2.7.02,4.54.02Zm-59.78-53.48c8.67.23,7.15,2.13,9.77-7.85-3.41,2.86-8.54,2.37-9.77,7.85Zm196.4-47.22c-1.76-.8-3.22-2.22-4.16.3-1.51,4.06-2.91,8.16-4.36,12.25.35.18.7.36,1.04.54,4.24-3.22,4.38-8.94,7.48-13.09Zm-252.36,117.36c-1.41-4.37-2.67-8.28-3.92-12.18-.19.01-.38.03-.57.04-.46,3.72-.92,7.44-1.38,11.19,2.02.33,3.79.62,5.88.96Zm59.18-102.32c-6.39,1.31-7.42,1.91-7.61,4.38,8.04,1.57,8.65,1.24,7.61-4.38Zm60.38-48.43c-7.39,1.26-12.73,4.4-12.29,7.09,4.03-2.72,9.3-2.91,12.29-7.09Zm58.34,80.71c.17-.16.34-.33.52-.49,2.95,3.62,5.82,7.3,8.92,10.79.39.44,1.92-.14,3.73-.33-5.04-3.81-9.1-6.89-13.17-9.97Zm2.12-78.08c-1.54,2.31-2.76,3.7-3.36,5.32-.19.51,1.31,1.63,2.04,2.48,1.29-1.33,2.76-2.54,3.75-4.06.24-.37-1.11-1.77-2.42-3.73Zm-166.27,164.09c-2.45-1.29-4.43-2.33-6.42-3.37-.46,2.1-.93,4.21-1.52,6.89,2.37-.95,3.94-1.56,5.49-2.22.61-.26,1.17-.61,2.45-1.3Zm103.73-161.54c-6.7,1.52-9.69,3.67-8.98,6.9,2.9-2.58,8.06-1.71,8.98-6.9Zm-75.58,172.86c-2.42,2.24-4.11,3.81-5.86,5.43,1.34,1.84,2.51,3.45,4.04,5.55.62-3.77,1.13-6.86,1.82-10.98Zm159.8-74.85c3.87-3.26,7.73-6.52,11.55-9.74-6.72-.19-9.09,4.9-11.55,9.74Zm-30.19-105.03c.42.05.84.1,1.26.15,1.01-1.35,2.25-2.6,2.89-4.11.17-.4-1.45-1.58-2.25-2.4-1.07,1.16-2.4,2.19-3.09,3.54-.3.59.75,1.85,1.18,2.81Zm-117.1,185.14c-1.44,4.17-2.67,7.71-4.06,11.73,5.61-4.4,6.44-6.58,4.06-11.73Zm103-167.14c1.45,1.33,2.26,2.07,3.07,2.81.97-1.09,2.24-2.06,2.76-3.34.22-.53-1.18-1.71-1.84-2.6-1.12.88-2.24,1.76-3.99,3.13Zm-129.53,35.11v5.18c2.98-1.12,5.68-2.13,8.39-3.15-.07-.2-.14-.39-.21-.59-2.67-.47-5.33-.94-8.17-1.44Zm141.04-42c.46.02.93.05,1.39.07.72-1.46,1.67-2.86,2.02-4.4.12-.54-1.27-1.42-1.97-2.14-1.01,1.23-2.3,2.33-2.91,3.74-.25.59.94,1.8,1.47,2.73Zm-.47-15.86c-1.54-1.14-3.01-2.58-3.28-2.38-1.25.92-2.27,2.23-3.07,3.57-.12.21,1.7,2.1,2.03,1.94,1.38-.64,2.54-1.77,4.32-3.14Zm8.42,3.94c1.69,1.22,3.12,2.61,3.41,2.41,1.25-.89,2.28-2.17,3.09-3.5.14-.22-1.54-2.09-1.85-1.95-1.41.61-2.63,1.65-4.65,3.05Zm-11.49,6.57c-1.56-1.36-2.77-2.76-3.05-2.6-1.19.71-2.36,1.75-2.98,2.96-.21.42,1.47,2.5,1.83,2.39,1.25-.39,2.29-1.42,4.2-2.76Zm-7.66-2.28c-1.5-1.28-2.74-2.67-3-2.51-1.18.76-2.42,1.81-2.94,3.04-.21.5,1.67,2.62,2.09,2.48,1.2-.4,2.14-1.58,3.84-3.02Zm14.96,14.94c-1.45-1.03-2.72-2.25-2.97-2.06-1.12.82-2.18,1.93-2.76,3.17-.16.35,1.83,2.28,2.06,2.15,1.19-.69,2.14-1.82,3.67-3.26Zm-18.12-6.6c-.41-.04-.81-.08-1.22-.11-.61,1-1.74,2.03-1.69,2.99.06,1.01,1.26,1.95,1.96,2.91.79-.95,1.99-1.81,2.24-2.89.19-.82-.82-1.92-1.29-2.9Zm-114.56,192.88l.81.5c1.49-1.08,2.98-2.17,4.59-3.34-1.42-1.63-2.5-2.87-4.02-4.62-.53,2.89-.95,5.17-1.37,7.45Zm148.93-106.72c.1.32.2.64.3.96,1.34.59,2.63,1.32,4.02,1.72,1,.29,2.12.14,3.19.18-.72-.77-1.36-1.67-2.2-2.28-.8-.59-1.79-1.12-2.75-1.24-.82-.1-1.71.42-2.57.66Zm43.92-24.2c1.61-2.62-.21-6.45-3.29-8.93-.3.14-.59.28-.89.41,1.29,2.63,2.58,5.25,4.18,8.52Zm-56.43,4.51c2.72,2.3,4.8,4.05,7.21,6.08.1-3.34-3.26-6.41-7.21-6.08Zm59.41-20.58c-1.21,3.62,1.44,5.87,3.01,8.5.18.3,1.18.1,1.94.14-1.82-3.17-3.38-5.91-4.95-8.65Zm8.66-6.86c-3.66.92-3.94,3.55-1.09,9.42.34-2.95.71-6.09,1.09-9.42Zm-11.59,10.54c-.91,3.51,1.07,5.84,3.93,8.77.61-4.34-2.9-6.02-3.93-8.77Zm13.8,2.18c.45-5.03.81-9.14,1.18-13.25-2.21,4.02-2.98,8.11-1.18,13.25Zm-170.58,35.01c3.98-.41,4-.51,1.57-7.85-.56,2.79-1.06,5.29-1.57,7.85Zm-23.83,18.56c.87-2.84,1.55-5.04,2.37-7.71-1.68.6-2.87,1.03-4.25,1.52.63,2.09,1.17,3.85,1.88,6.19Zm122.59-39.76c-1.51,1.04-3.02,2.09-4.73,3.28,2.03.32,4.11.64,6.39,1-.62-1.59-1.14-2.94-1.66-4.28Zm24.03,20.84c-2.42-4.11-6.05-5.48-7.5-3.36,2.3,1.03,4.58,2.05,7.5,3.36Zm-85.13-83.44c-.26-.31-.53-.63-.79-.94-1.64,1.42-4.8,1.06-4.23,5.1,1.67-1.38,3.35-2.77,5.02-4.15Zm81,5.17c-.5.42-1,.84-1.49,1.26.66,1.15,1.32,2.3,1.99,3.45.67-.76,2.05-1.8,1.88-2.23-.39-.99-1.53-1.67-2.37-2.48Zm32.22,47.95c-.88,3.05,1.65,6.86,4.6,7.27-1.53-2.41-3-4.73-4.6-7.27Zm-40.22,36.19c-.24.47-.48.94-.73,1.42,2.29.94,4.57,1.89,6.86,2.83.18-.4.36-.8.55-1.2-2.23-1.01-4.45-2.03-6.68-3.04Zm54.76-41.57l-2.29-8.75c-2.15,3.69.32,6.16,2.29,8.75Zm-213.41,23.09c2.97,1.69,5.44,2.84,8.47,0h-8.47Z"/>
  <path class="cls-2" d="m352.03,190.24c6.45.72,14.24,1.36,21.95,2.52,7.18,1.09,12.83,5.56,18.31,9.89,1.49,1.18,1.82,4.02,2.33,6.18,1.04,4.43,1.99,8.89,2.67,13.38.28,1.82.14,3.89-.46,5.61-2.94,8.41-2.33,16.88-1.11,25.47,1.38,9.79.57,19.31-5.62,27.56-3.55,4.73-9.1,6.69-14.33,8.44-9.05,3.03-18.42,5.1-27.59,7.83-3.12.93-6.37,2.14-8.96,4.04-8.35,6.13-17.55,6.57-27.25,5.13-4.76-.71-9.57-1.04-14.35-1.59-12.95-1.48-25.91-2.96-38.86-4.51-4.09-.49-8.14-1.27-12.23-1.73-3.32-.37-4.79-1.64-4.68-5.04.1-3.14.67-6.27.86-9.41.5-8.53-3.01-16.36-4.4-24.56-.17-.97-.17-2.34.38-3.01,7.54-9.13,15-18.35,22.86-27.2,17.21-19.37,37.62-33.5,63.96-37.06,8.3-1.12,16.74-1.27,26.52-1.96Zm-19.46,21.94c0-3.2-1.67-4.78-4.05-4.63-1.24.08-2.47.45-3.68.76-19.52,5.02-33.41,18.67-47.92,31.34-1.98,1.73-2.01,4.29-.2,6.18,1.78,1.85,4.04,1.35,5.9-.22,3.61-3.04,7.09-6.23,10.72-9.25,11.04-9.19,22.14-18.26,36.63-21.67,1.2-.28,2.08-1.97,2.61-2.52Zm13.65.55c7.51-1.07,13.86-1.85,20.13-3.03.89-.17,2.03-2.32,1.99-3.51-.11-3.16-2.96-3.92-5.24-3.71-5.66.53-11.27,1.61-16.89,2.55-2.41.41-3.38,2.34-2.75,4.33.49,1.53,2.16,2.68,2.76,3.37Z"/>
  <path class="cls-2" d="m393.77,399.02c-12.14-.79-23.15-1.51-34.16-2.2-4.47-.28-8.95-.58-13.43-.72-2.47-.08-2.73-.88-2.13-3.23,5.92-22.85,11.7-45.74,17.46-68.64.55-2.19,1.63-3.05,3.88-2.89,10.66.74,21.33,1.43,31.99,2.09,4.82.3,9.64.56,14.46.71,1.72.06,2.64.42,3.05,2.37,1.17,5.57,2.73,11.07,3.94,16.63.43,1.96.71,3.64,2.8,4.67.74.36,1.01,1.92,1.25,2.99,1.06,4.9,2.12,9.81,2.96,14.76.18,1.05-.23,2.59-.95,3.35-6.97,7.34-14.08,14.54-21.1,21.83-1.11,1.15-2.14,2.46-2.88,3.86-1.8,3.39-4.22,5.34-7.14,4.42Z"/>
  <path class="cls-2" d="m455.53,250.49c.27-15.57,4.84-29.33,17.03-39.77,12.87-11.03,30.02-10.82,43.04.13,10.4,8.75,15.81,19.84,16.22,33.6.32,10.85-.13,21.52-3.61,31.87-4.71,14.04-19.44,24.81-33.93,24.15-14.06-.64-23.9-8.51-30.93-20.16-5.5-9.13-7.95-19.16-7.82-29.83Zm41.86-30.31c13.89.96,20.91,5.9,24.33,16.82,2.94,9.38,1.42,18.53-1.45,27.59-.24.77-1.3,1.28-1.99,1.92-.12-.99-.57-2.06-.32-2.94,2.01-7.19,3.34-14.31,2.17-21.94-1.46-9.56-8.6-19.38-21.29-18.59-1.23.08-2.72.18-3.67-.42-2.43-1.52-4.4-.95-6.03.94-1.64,1.9-3.21,3.94-4.38,6.15-1.34,2.51-2.28,1.59-3.67-.4-2.59,5.26-6.29,10.02-7.27,15.29-2.46,13.23.36,25.79,8.3,36.87,6.69,9.34,17.17,13.24,26.79,9.9,7.59-2.64,12.74-8.34,15.84-15.44,6.75-15.41,5.25-30.7-1.56-45.82-4.01-8.89-17.5-13.61-25.81-9.94Zm5.48-13.21c-.89-.5-1.34-.91-1.87-1.03-10.66-2.31-19.96.47-27.98,7.68-8.77,7.9-13.01,18.18-14.54,29.58-.65,4.85-.11,9.86-.11,14.9,1.08-.24,1.92-.43,2.13-.48,1-6.28,1.83-12.04,2.9-17.75.26-1.37,1.32-2.6,2.01-3.89l1.24.47c-.12,1.2-.29,2.4-.35,3.6-.17,3.73-.32,7.47-.39,11.2-.01.55.58,1.63.7,1.6,2.55-.58,1.99,1.61,2.45,2.76.52,1.31.83,2.7,1.23,4.05.48-2.03.55-3.96.47-5.88-.45-10.65,1.62-20.72,7.11-29.93,5.55-9.31,13.14-15.83,25-16.9Z"/>
  <path class="cls-2" d="m6.12,436.25c-3.99-3.25-3.67-7.01-4.36-10.36-1.96-9.47.38-18.74,1.73-27.99,2.25-15.42,6.98-30.14,14.17-44.02.25-.49.41-1.04.81-2.08-3.26-.5-6.28-.97-9.3-1.44-1.7-.26-3.43-.41-5.08-.84-1.83-.48-2.43-1.52-1.83-3.62,2.44-8.45,2.36-8.56,10.9-8.51,4.02.02,8.04.45,12.05.67,1.23.06,2.46,0,3.38,0,.38-.47.51-.55.52-.64,1.25-7.62.83-8.2-6.68-9.14-4.43-.55-4.13-.69-2.43-4.79,1.98-4.78,5.03-6.11,9.88-5.59,5.41.57,10.89.58,16.35.73,2.19.06,3.16,1.09,3.17,3.19,0,1.57,0,3.14,0,5.14,7.76-3.54,15.4-4.02,24.21-3.1-19.24,13.6-37.86,26.41-48.66,47.61-10.32,20.26-19.1,40.74-18.84,64.79Zm28.99-115.45c-.27,4.97-.52,9.51-.77,14.06.3.1.59.2.89.3.97-1.16,2.63-2.25,2.77-3.5.38-3.57.13-7.2.13-10.86h-3.02Zm5.44,10.23c3.64-1.9,5.33-7.88,3.4-9.68-.82.06-1.81.12-2.89.2-.17,3.07-.32,5.93-.51,9.49Z"/>
  <path class="cls-2" d="m528.56,281.21c6.18-15.14,5.98-30.51,4.53-46.02,4.81,1,5.99,2.4,6.28,6.77.75,11.23-1.56,22.08-3.9,32.95-.81,3.75-3.46,4.97-6.91,6.31Z"/>
  <path class="cls-1" d="m286.69,3.64c12.67,1.23,19.52,6.88,22.33,18.94,2.61,11.22-3.05,18.62-10.69,25.07-4.62,3.9-15.44,3.14-20.9-1.13-6.65-5.19-10.54-12.25-11.36-20.59-1.01-10.26,4.26-17.7,14.08-21.01,1.3-.44,2.63-.85,3.97-1.13.89-.19,1.84-.12,2.57-.16Z"/>
  <path class="cls-2" d="m496.22,619.54c-3.17.7-6.32,1.71-9.53,2.04-13.72,1.43-26.62-1.09-38.75-7.92-18.31-10.31-32.59-24.71-43.24-42.63-7.04-11.84-10.69-24.96-12.08-38.66-.75-7.42-1.85-14.86-1.84-22.29,0-6.65,1.32-13.29,2.06-19.94.5.03,1.01.06,1.51.09-.09,1.18-.08,2.38-.29,3.53-1.92,10.9-.63,21.72.64,32.57,1.45,12.35,4.24,24.33,9.68,35.56,8.81,18.21,22.24,32.4,39.31,42.94,6.95,4.29,14.61,7.66,22.3,10.48,5.04,1.85,10.68,2.26,16.11,2.77,4.63.43,9.33.09,14,.09.04.46.08.91.13,1.37Z"/>
  <path class="cls-2" d="m439.38,486.22c-3.94-6.67-7.71-12.96-11.33-19.33-.62-1.1-1.04-2.71-.74-3.88,2.86-11.44,7.06-22.36,13.47-33.3,1.3,6.16,2.49,11.6,3.59,17.05,1.49,7.37,2.97,14.75,4.35,22.14,1.09,5.87-2.22,12.91-7.37,16.04-.58.35-1.14.74-1.96,1.27Z"/>
  <path class="cls-2" d="m432.85,282.6c.64,1.97,1.47,3.9,1.89,5.92,4.7,22.45,9.37,44.9,13.99,67.36,4.36,21.24,8.64,42.49,12.99,63.74,3.47,16.99,7.03,33.97,10.39,50.98.21,1.09-.9,2.44-1.4,3.67-.86-.91-2.28-1.7-2.5-2.75-3.15-14.96-6.15-29.94-9.15-44.93-3.58-17.9-7.14-35.81-10.7-53.71-3.82-19.24-7.71-38.48-11.42-57.74-1.9-9.86-3.46-19.79-5.14-29.7-.15-.86-.02-1.77-.02-2.65.36-.06.72-.12,1.07-.18Z"/>
  <path class="cls-2" d="m597.01,469.22c.62,4.79,1.55,9.56,1.82,14.36,1.04,18.98-2.8,37.35-7.75,55.49-2.64,9.66-5.26,19.44-9.18,28.61-6.97,16.33-16.78,30.86-31.25,41.69-2.31,1.73-5.01,2.95-7.53,4.4-.2-.27-.39-.53-.59-.8,3.58-3.71,7.28-7.32,10.71-11.16,12.89-14.43,23.52-30.44,28.91-49.07,5-17.26,8.76-34.91,12.25-52.56,1.55-7.81,1.14-16.02,1.56-24.05.12-2.27.02-4.55.02-6.82.34-.04.69-.08,1.03-.11Z"/>
  <path class="cls-1" d="m517.52,95.09c.92-9.21,2.93-15.97,7.61-21.66,1.2-1.46,2.82-2.73,4.5-3.62,2.28-1.2,4.84-1.73,7.11.2,2.11,1.79,3.07,3.95,2.69,6.91-1.18,9.34-2.19,18.69-6.6,27.25-1.54,2.99-3.86,4.69-7.14,4.28-1.52-.19-3.68-1.13-4.22-2.32-1.83-4.1-3.06-8.47-3.94-11.04Z"/>
  <path class="cls-2" d="m534.25,568.16c-5.96-2.53-11-4.66-16.04-6.8-2.55-1.08-2.14-3.07-1.12-4.8,2.73-4.64,4.88-10.07,8.77-13.45,3.82-3.31,9.32-5.35,14.4-6.36,6.2-1.23,8.4,2.23,5.66,8.09-3.66,7.84-7.72,15.48-11.66,23.32Z"/>
  <path class="cls-2" d="m466.04,157.65c1.64-.43,2.65-.95,3.64-.91,10.1.39,20.2.87,30.3,1.37.73.04,1.71.27,2.11.77,3.94,5.01,7.78,10.1,12.22,15.91-4.99-.33-9.16-.59-13.32-.9-6.64-.49-13.28-1-19.91-1.54-.84-.07-1.97-.1-2.45-.62-4.1-4.45-8.08-9.01-12.59-14.08Z"/>
  <path class="cls-2" d="m262.08,130.33c.16-2.8.31-5.29.49-8.25h54.09c.21,2.39.43,4.98.72,8.25h-55.3Z"/>
  <path class="cls-2" d="m356.14,125.89c2.41.13,4.82.25,7.23.38.01.45.02.9.03,1.35-3.18,0-6.36.03-9.54,0-7.62-.1-6.14.42-6.11-6.3.03-5.37.5-10.74.8-16.44,8.52.43,16.94.85,25.37,1.27,0,2.47.88,5.32-.17,6.83-2.78,3.99-5.23,8.65-11.23,9.13-2.32.19-4.53,1.79-6.79,2.75.14.34.27.68.41,1.02Z"/>
  <path class="cls-2" d="m548.59,444.64c1.72,6.74,3.51,13.31,4.97,19.96.21.96-1.01,2.35-1.77,3.4-4.71,6.43-4.66,6.22-12.03,3.66-3.83-1.33-5.24-3.5-5.4-7.47-.18-4.54-1.12-9.05-1.82-13.56-.31-2.02-.11-3.14,2.41-3.44,4.38-.54,8.7-1.59,13.64-2.54Z"/>
  <path class="cls-2" d="m496.15,555.13c3.3,3.78,6.69,7.54,9.88,11.45.5.61.5,2.17.07,2.9-3.63,6.1-7.42,12.11-11.46,18.63-4.17-7.28-8.16-14.18-12.03-21.14-.3-.54.06-1.66.45-2.32,2.11-3.66,4.9-6.56,9.09-7.86,1.29-.4,2.51-1.03,4-1.66Z"/>
  <path class="cls-2" d="m376.28,133.63c.85-.68,1.99-1.59,3.42-2.73,1.78,1.52,3.5,2.98,5.21,4.46,10.52,9.15,20.18,19.11,28.59,30.27,1.79,2.38,3.85,4.57,5.82,6.82,4.79,5.46,4.85,6.09,1.45,12.02-14.62-16.71-29.41-33.6-44.49-50.84Z"/>
  <path class="cls-2" d="m522.43,369.68c19.69,3.77,34.37,15.9,48.26,29.09,14.1,13.39,20.2,30.64,22.07,49.73-.29-.56-.68-1.09-.86-1.69-3.84-12.65-8.32-25.2-16.85-35.39-6.74-8.05-14.45-15.53-22.7-22.02-8.87-6.97-18.88-12.5-28.38-18.66-.52-.34-1.02-.71-1.53-1.06Z"/>
  <path class="cls-2" d="m576.55,524.18c.75-15.48,2.08-30.23,2.04-44.98-.05-19.51-2.16-38.87-8.84-57.42-1-2.78-2.65-5.32-4-7.98.35-.24.69-.48,1.04-.72,1.86,2.56,4.21,4.9,5.49,7.73,5.67,12.49,9.29,25.58,9.98,39.34.44,8.73,1.3,17.56.52,26.21-1.11,12.24-3.56,24.35-5.46,36.52-.05.3-.32.56-.77,1.31Z"/>
  <path class="cls-2" d="m453.53,571.33c.57-9.45,1.11-18.37,1.69-27.87,3.42,0,6.82-.06,10.21.06.59.02,1.26.76,1.7,1.33,4.07,5.34,5.71,11.37,4.96,18.27-5.94,2.63-11.97,5.3-18.56,8.21Z"/>
  <path class="cls-2" d="m410.48,518.44c8.8,37.19,24.75,69.08,62.06,85.9-.24.38-.48.77-.72,1.15-4.05-1.19-8.17-2.18-12.14-3.6-14.15-5.06-22.8-16.11-30.45-28.23-9.09-14.41-15.21-29.9-17.29-46.89-.34-2.79-.97-5.55-1.47-8.33Z"/>
  <path class="cls-2" d="m538.54,517.95c-3.07-6.1-5.79-11.51-8.63-17.15,1.37-.73,2.55-1.38,3.74-1.99,3-1.56,4.2-3.76,4.52-7.37.26-2.94,2.71-5.68,4.52-9.14,3.84,4.56,7,8.31,10.41,12.36-4.69,7.51-9.43,15.09-14.56,23.3Z"/>
  <path class="cls-2" d="m517.56,531.58c-1.78-11.68,1.28-21.4,10.64-28.96,2.66,5.27,5.45,10.61,8.05,16.03,1.08,2.25-2.17,8.18-5.05,9.1-4.52,1.44-9.13,2.58-13.64,3.84Z"/>
  <path class="cls-2" d="m438.68,620.93c15.1,7.05,29.46,13.25,45.51,12.41,15.45-.8,30.61-3.25,44.88-9.84.14.33.29.66.43.99-2.82,1.63-5.56,3.4-8.47,4.85-9.54,4.74-19.77,6.85-30.27,8.4-19.13,2.83-35.41-3.52-50.48-14.45-.28-.2-.52-.45-.75-.71-.14-.17-.22-.4-.85-1.64Z"/>
  <path class="cls-2" d="m452.91,543.38c-.34,6.28-.64,12-.95,17.72-.15,2.87-.57,5.75-.39,8.59.18,2.71-1.61,3.53-3.42,3.85-1.06.19-2.81-.67-3.48-1.61-2.66-3.73-5.22-7.57-7.38-11.61-.71-1.32-.62-3.56,0-4.98,1.43-3.23,3.57-6.14,5.13-9.32,1.07-2.18,2.44-3.04,4.86-2.69,1.67.24,3.41.05,5.62.05Z"/>
  <path class="cls-2" d="m391.59,168.99c-12.9-8.91-25.8-17.83-38.71-26.74,0-.38.01-.76.02-1.14,3.56-.57,7.14-1.05,10.68-1.73,6.35-1.22,10.36,1.9,13.63,6.86,4.9,7.44,9.95,14.78,14.94,22.17-.19.19-.37.38-.56.57Z"/>
  <path class="cls-2" d="m477.06,594.37c-.47-5.16-.76-10.3-1.47-15.38-.64-4.58,1.84-7.53,4.88-10.87,2.19,3.77,4.28,7.36,6.36,10.96,1.54,2.67,3.04,5.37,4.58,8.05,2.6,4.51.46,8.27-4.73,8.28-1.72,0-3.46.1-5.17-.07-1.45-.14-2.86-.61-4.46-.97Z"/>
  <path class="cls-2" d="m520.73,506.59c1.32-11.21,1.33-21.95-3.15-32.31-4.5-10.38-11.66-18.23-21.79-23.13.36-1.08.48-1.63.72-2.1.25-.49.62-.92.58-.86,1.25.68,2.34,1.27,3.42,1.87,3.46,1.91,7.46,3.23,10.26,5.84,8.08,7.53,11.58,17.6,14.07,28.07.5,2.1.92,4.22,1.36,6.34,1.32,6.26.22,11.77-5.46,16.28Z"/>
  <path class="cls-2" d="m517.04,614.45c28.24-18.96,44.86-46.49,55.8-77.8,4.07,19.42-36.57,76.11-55.8,77.8Z"/>
  <path class="cls-2" d="m472.48,565.52c.81,4.75,1.06,8.78-2.4,12.45-2.88,3.05-5.2,6.63-8.07,10.38-2.94-2.28-5.77-4.21-8.28-6.49-1.97-1.79-.49-7.88,2.03-9,5.41-2.41,10.85-4.77,16.73-7.34Z"/>
  <path class="cls-2" d="m438.08,411.93c-13.78,22.5-20.72,47.58-28.51,72.33,1.31-27.17,11.81-50.92,26.9-72.96.54.21,1.08.41,1.61.62Z"/>
  <path class="cls-2" d="m498.89,594.39c-3.02-2.61-2.79-4.64-1-7.28,3.77-5.58,7.17-11.41,10.73-17.14,4.72,3.68,6.91,10.76,5.07,16.5-.18.58-.73,1.21-1.28,1.48-4.58,2.24-9.19,4.4-13.52,6.45Z"/>
  <path class="cls-2" d="m428.09,525.35c6.99,1.99,13.43,3.82,20.28,5.77-1.82,3.09-2.9,7.52-5.13,8.2-4.45,1.36-9.53.66-14.34.81-.98-3.5-2.21-6.97-2.79-10.54-.2-1.23,1.23-2.73,1.98-4.24Z"/>
  <path class="cls-2" d="m414.25,195.07c5.67,21.78,12.24,43.34,15.67,65.65-.56.2-1.12.4-1.68.6-.82-1.82-1.95-3.57-2.41-5.47-3.08-12.51-6.12-25.02-8.95-37.59-1.55-6.88-2.69-13.86-3.97-20.8-.13-.71-.02-1.46-.02-2.19l1.36-.2Z"/>
  <path class="cls-2" d="m344.77,123.45c.15,1.9.28,3.46.45,5.62-3.7-.29-7.16-.63-10.62-.8-1.91-.09-3.84-.04-5.74.19-2.83.34-5.64.89-9.54,1.53,0-4.06-.12-7.23.04-10.39.1-1.95.89-3.51,3.41-3.09,1.01.17,2.08.14,3.1,0,3.62-.48,6.97-.85,6.11,4.7-.09.57,1.98,2.02,3.13,2.13,3.17.3,6.39.1,9.66.1Z"/>
  <path class="cls-2" d="m555.41,496.96c.18,1.17.64,2.38.5,3.51-.82,6.47-1.71,12.92-2.76,19.35-.15.92-1.18,2.1-2.06,2.42-2.87,1.04-5.86,1.74-8.77,2.56-2.54-2.76-2.47-5.1-.32-8.2,4.42-6.37,8.3-13.12,12.4-19.71.34.02.68.04,1.02.06Z"/>
  <path class="cls-2" d="m494.31,420.06c-4.36-3.23-17.02-19.36-17.64-22.88,4.31-.82,8.62-1.7,12.97-2.38.55-.09,1.77.87,1.84,1.45,1.02,7.87,1.9,15.77,2.83,23.81Z"/>
  <path class="cls-2" d="m425.83,496.55c3.84,4.44,7.27,8.29,10.52,12.29.41.51.23,1.99-.23,2.63-2.45,3.47-5.03,6.86-7.69,10.17-.43.53-1.58.89-2.24.72-.68-.17-1.62-1.05-1.67-1.68-.58-6.74-1.14-13.48-1.35-20.24-.04-1.16,1.57-2.37,2.66-3.89Z"/>
  <path class="cls-2" d="m524.99,386.16c16.15,5.99,32.06,27.72,30.72,42.64-1.75-3.85-3.21-7.12-4.72-10.36-4.95-10.63-12.57-18.94-22.62-24.84-3.15-1.85-4.16-3.93-3.38-7.44Z"/>
  <path class="cls-2" d="m426.04,468.08c4.08,6.97,7.62,13.01,11.33,19.35-3.6,2.24-6.94,4.32-10.01,6.22-6.23-2.77-3.74-7.84-3.49-12.06.25-4.17,1.29-8.3,2.16-13.51Z"/>
  <path class="cls-2" d="m516.65,195.33c-8.96-.68-17.41-.98-25.73-2.15-2.87-.4-5.43-2.98-8.13-4.56.18-.55.35-1.11.53-1.66,11.25.8,22.49,1.59,34.2,2.42-.35,2.4-.67,4.56-.87,5.95Z"/>
  <path class="cls-2" d="m532,445.53c-.53-4.32-.97-7.92-1.44-11.76,3.52-1.45,7.05-2.91,10.92-4.51,2.01,4.35,3.9,8.44,6.06,13.1-5.45,1.11-10.37,2.11-15.55,3.17Z"/>
  <path class="cls-2" d="m478.95,406.18c4.66,5.51,9.35,10.99,13.94,16.55.45.55.71,1.91.37,2.35-2.59,3.33-5.36,6.52-8.56,10.33-2.19-10.17-4.22-19.58-6.24-29,.16-.08.33-.16.49-.24Z"/>
  <path class="cls-2" d="m429.98,523.41c3.03-3.92,5.83-7.53,9.07-11.73,3.89,4.93,7.6,9.51,11.08,14.26.27.37-1.31,2.86-1.62,2.77-6.13-1.6-12.19-3.44-18.53-5.31Z"/>
  <path class="cls-2" d="m522.25,580.64c-7.04-4.25-6.09-10.56-5.51-17.42,5.1,2.13,10.03,4.19,15.61,6.53-3.62,3.91-6.94,7.48-10.11,10.9Z"/>
  <path class="cls-2" d="m428.35,495.76c3.56-2.21,6.75-4.19,9.94-6.17,6.76,8.62,6.84,12.18.32,18.26-3.34-3.93-6.67-7.86-10.26-12.09Z"/>
  <path class="cls-2" d="m473.92,544.39c5.31,2.53,10.43,4.96,16.73,7.96-4.19,3.15-7.68,5.78-11.33,8.52-3.61-5.44-7.02-9.95-5.39-16.49Z"/>
  <path class="cls-2" d="m494.65,550.22c3.28-10.25,11.4-10.33,19.72-10.23.84,3.03.23,4.93-3.22,6.07-4,1.31-7.81,3.27-11.6,5.14-2.22,1.1-3.89,1.12-4.9-.98Z"/>
  <path class="cls-2" d="m477.83,541.13c18.41-1.36,27.26-13.31,33.74-27.73,4.86-10.82,6.52-22.11,2.48-33.7-.1-.28-.01-.63.78-1.3.8,1.69,1.84,3.3,2.35,5.07,2.37,8.11,1.24,16.12-1.36,23.93-4.28,12.87-11.38,23.72-23.22,30.93-4.31,2.63-9,3.82-14.78,2.8Z"/>
  <path class="cls-2" d="m495.27,426.35c.7,5.78,1.48,10.7,1.75,15.66.06,1.11-1.42,2.81-2.59,3.32-.86.37-2.71-.44-3.53-1.28-1.81-1.87-3.26-4.11-5-6.38,2.96-3.57,5.89-7.12,9.36-11.31Z"/>
  <path class="cls-2" d="m507.99,158.26c7.62,2.42,15.26,4.73,22.83,7.3,3.29,1.11,1.15,3.15.46,5.23-8.25-3.55-18.39-2.75-23.85-11.49.19-.35.37-.69.56-1.04Z"/>
  <path class="cls-2" d="m554.12,492.21c-2.9-3.39-5.84-6.72-8.59-10.19-.4-.5-.19-2.04.3-2.55.73-.75,2.1-1.58,2.96-1.38,1.96.46,3.78,1.53,5.64,2.37.4.18.84.41,1.1.74,1.23,1.58.33,9.14-1.41,11.01Z"/>
  <path class="cls-2" d="m514.47,547.07c0,3.03.11,5.56-.03,8.07-.18,3.25-1.52,4.06-4.37,2.79-3.24-1.44-6.46-2.9-10.14-4.55,4.91-2.13,9.48-4.12,14.53-6.31Z"/>
  <path class="cls-2" d="m309.28,59.49c9.78,11.26,19.56,22.52,29.32,33.8.59.68,1.32,1.51,1.38,2.32.37,4.98.56,9.97,0,15.02-.21-2.34-.18-4.74-.69-7.01-.73-3.27-1.13-6.96-2.96-9.57-4-5.71-8.78-10.88-13.29-16.23-4.21-5.01-8.52-9.94-12.7-14.96-.74-.89-1.12-2.09-1.66-3.15.2-.07.4-.14.61-.21Z"/>
  <path class="cls-2" d="m466.03,199.84c4.59-7.57,9.17-15.15,13.78-22.76.27,3.42.55,6.51.71,9.61.03.56-.39,1.27-.81,1.69-2.63,2.63-5.32,5.2-8,7.78-1.57,1.52-3.16,3.02-4.73,4.52-.31-.28-.63-.57-.94-.85Z"/>
  <path class="cls-2" d="m474.61,594.09c-3.89-1.62-7-2.92-10.62-4.43,3.12-4.14,5.96-7.9,9.36-12.41.44,5.87.81,10.89,1.25,16.84Z"/>
  <path class="cls-2" d="m529.24,489.19c-1.88-14.74-3.75-29.49-5.63-44.23.46-.06.92-.12,1.38-.19,2.18,14.69,4.37,29.39,6.55,44.08-.77.11-1.54.23-2.31.34Z"/>
  <path class="cls-2" d="m532.48,415.88c2.57,3.69,5.13,7.38,7.9,11.36-3.47,1.38-6.48,2.57-10.42,4.13.59-5.54,1.1-10.41,1.62-15.27.3-.07.6-.15.9-.22Z"/>
  <path class="cls-2" d="m434.55,555.38c-1.82-4.51-3.31-8.23-4.97-12.35h11.96c-2.31,4.09-4.44,7.85-6.98,12.35Z"/>
  <path class="cls-2" d="m256.92,127.48h-10.83v-5.3c3.59-.24,7.19-.48,11.1-.74-.1,2.13-.18,3.9-.28,6.03Z"/>
  <path class="cls-2" d="m331.52,148.94c3.31-.24,5.68-.45,8.05-.58,1.14-.07,2.51.4,3.4-.08,4.67-2.5,7.01,1.52,10.12,3.5-6.97-.39-14.14,1.28-21.58-2.84Z"/>
  <path class="cls-2" d="m334.46,120.81c-.23-1.3-.5-2.82-.82-4.67h11.44c1.1,4.22.67,4.78-3.49,4.68-2.25-.06-4.51,0-7.13,0Z"/>
  <path class="cls-2" d="m522.52,439.7c-2.57-9.8-1.31-20.02-2.7-29.95.4-.05.81-.09,1.21-.14,1.15,9.93,2.29,19.86,3.44,29.79l-1.95.3Z"/>
  <path class="cls-2" d="m540.88,527.96c.58,1.13,1.24,2.42,2.27,4.41-4.14,1.2-8.03,2.32-12.4,3.59,1.43-5.85,4.85-7.87,10.13-8Z"/>
  <path class="cls-2" d="m542.49,181.18c-8.24-2.29-16.5-4.54-24.71-6.94-.89-.26-1.53-1.38-1.92-2.58,9.02,2.62,18.04,5.25,27.06,7.87-.14.55-.29,1.1-.43,1.65Z"/>
  <path class="cls-2" d="m450.52,531.89c3.6.9,4.03,2.8,2.12,8.7h-6.98c1.73-3.1,3.31-5.93,4.86-8.7Z"/>
  <path class="cls-2" d="m512.36,115.66c-1.87,2.37-2.95,4.16-4.42,5.53-4.64,4.33-5.71,9.88-5.97,15.85-.15,3.47-.7,6.92-1.32,10.34-1.01-12.03-.64-23.61,11.71-31.72Z"/>
  <path class="cls-2" d="m530.35,530.34c-2.01,7.27-7.82,5.83-12.76,6.45-.82-1.77-.6-2.77,1.62-3.29,3.62-.84,7.16-2.01,11.15-3.16Z"/>
  <path class="cls-2" d="m376.99,127.57h-7.98c-.13-.23-.26-.45-.38-.68,1.54-.8,3.13-1.52,4.6-2.44.81-.51,1.91-1.29,2.01-2.07.66-5.19,1.09-10.41,1.75-15.58v20.76Z"/>
  <path class="cls-2" d="m514.98,523.16v9.02c-2.73.79-5.5,1.6-8.8,2.55,3.07-4.04,5.82-7.65,8.8-11.57Z"/>
  <path class="cls-2" d="m500.92,556.22c3.49,1.59,6.99,3.18,10.62,4.83-1.02,1.61-1.93,3.06-2.97,4.71-2.8-3.14-5.44-6.1-8.08-9.07.14-.16.29-.31.43-.47Z"/>
  <path class="cls-2" d="m455.71,540.98v-7.03c3.09,2.39,5.9,4.56,8.71,6.72,0,.24,0,.49,0,.73-2.81-.14-5.61-.27-8.71-.42Z"/>
  <path class="cls-2" d="m551.93,524.47c.34,5.48-4.24,4.68-6.64,6.73-.68-1.31-1.25-2.39-2.15-4.11,2.92-.87,5.68-1.69,8.79-2.62Z"/>
  <path class="cls-2" d="m541.67,481.04c-1.5,1.79-2.74,3.25-4.42,5.25-.55-4.17-1.03-7.78-1.5-11.39.2-.08.41-.17.61-.25,1.72,2.07,3.44,4.14,5.32,6.4Z"/>
  <path class="cls-2" d="m468.96,365.96c.78-.11,1.59-.13,2.33-.35,4.32-1.3,8.62-2.72,12.97-3.92.71-.2,1.66.44,2.5.7-.63.43-1.21,1.05-1.9,1.25-4.76,1.37-9.54,2.66-14.32,3.97-.52-.55-1.05-1.1-1.57-1.65Z"/>
  <path class="cls-2" d="m555.51,478.38c-2.49-1.1-4.42-1.96-6.54-2.9,1.74-2.24,3.32-4.27,5.36-6.89.43,3.58.77,6.42,1.18,9.79Z"/>
  <path class="cls-2" d="m450.74,523.58c6.01,6.53,12.91,11.79,21.12,15.24-8.99-2.35-15.56-8.1-21.12-15.24Z"/>
  <path class="cls-2" d="m514.12,571.62c-4.82-4.13-4.82-4.22,0-9.66v9.66Z"/>
  <path class="cls-2" d="m340.01,155.36c-5.23-.4-9.35-1.56-13.09-3.97-.41-.26-.4-1.17-.58-1.78.51-.13,1.14-.52,1.51-.34,3.76,1.82,7.47,3.73,12.16,6.09Z"/>
  <path class="cls-2" d="m517.25,543.49v-4.17c2.58-.32,5.12-.63,7.67-.94.13.32.27.64.4.96-2.52,1.29-5.05,2.59-8.07,4.14Z"/>
  <path class="cls-2" d="m440.41,509.96c.94-1.25,1.81-2.42,3.09-4.12.85,3.59,1.58,6.62,2.54,10.67-2.28-2.66-3.93-4.58-5.63-6.55Z"/>
  <path class="cls-2" d="m492.69,547.84c-1.22-1.28-2.23-2.34-3.57-3.75,2.8-.92,5.19-1.72,7.59-2.51.15.16.3.32.45.49-1.44,1.87-2.88,3.73-4.46,5.77Z"/>
  <path class="cls-2" d="m511.8,337.13c-.58-5.16-1.17-10.33-1.75-15.49l1.35-.14c.49,5.19.98,10.38,1.48,15.56-.36.02-.72.05-1.07.07Z"/>
  <path class="cls-2" d="m515.19,536.26c-3.46,2.6-7.94,1.06-11.67,2.6-.09-.33-.17-.66-.26-.98,3.8-1.01,7.61-2.03,11.41-3.04.17.48.35.95.52,1.43Z"/>
  <path class="cls-2" d="m509.06,314.32c-.55-4.03-1.1-8.05-1.65-12.08.37-.05.74-.1,1.11-.15,1.54,3.89,1.62,7.98,1.48,12.1-.31.04-.62.08-.93.12Z"/>
  <path class="cls-2" d="m479.69,565.06c-1.65,2.17-2.79,3.68-3.93,5.19-.37-.1-.75-.21-1.12-.31.52-1.99,1.03-3.98,1.55-5.97,1.03.32,2.07.65,3.51,1.09Z"/>
  <path class="cls-2" d="m517.37,551.83c-.35-3.67-.9-7.46,4.65-7.63-1.65,2.71-3.15,5.17-4.65,7.63Z"/>
  <path class="cls-2" d="m511.68,474.62c-2.12-4.02-4.23-8.04-6.35-12.07.34-.18.67-.35,1.01-.53,2.13,3.98,4.25,7.96,6.38,11.95-.35.22-.69.43-1.04.65Z"/>
  <path class="cls-2" d="m490.36,549.76c-2.93-1.41-5.87-2.83-9.12-4.4,4.84-1.86,7.05,1.12,9.12,4.4Z"/>
  <path class="cls-2" d="m488.74,378.15c.44,1.74.65,2.59.96,3.8-2.1.43-4.02.83-5.94,1.23-.18-.32-.36-.65-.54-.97,1.67-1.23,3.34-2.45,5.53-4.06Z"/>
  <path class="cls-2" d="m443.56,493.39c-1.16-2.08-1.95-3.51-2.91-5.23,1.38-.87,2.57-1.62,4.38-2.75-.53,2.85-.92,5.02-1.47,7.98Z"/>
  <path class="cls-2" d="m520.12,582.47c-1.34.97-2.41,1.76-4.07,2.97.18-2.49.31-4.38.5-7.04,1.5,1.71,2.49,2.84,3.58,4.08Z"/>
  <path class="cls-2" d="m31.05,406.91c2.15-5.01,4.37-9.69,8.9-12.98,2.36-1.72,4.5-1.75,6.62-.25,3.28,2.32,6.45,4.81,9.53,7.38,15.08,12.56,30.11,25.17,45.17,37.76,6.17,5.16,12.35,10.3,18.51,15.47.56.47.99,1.09,1.92,2.15-3.42-.73-5.89-5.71-8.95-.73-1.57-1.13-3.16-1.94-4.31-3.17-2.52-2.7-4.22-1.9-5.66,1.37-2.98-2.18-5.81-4.1-8.47-6.24-3.22-2.59-4.13-2.54-6.62,1.37-9.86-7.98-19.75-15.81-29.42-23.93-2.37-1.99-4.03-2.82-6.01.14-7.1-6.14-14.03-12.14-21.21-18.35Z"/>
  <path class="cls-2" d="m317.2,396.45c2.75.99,3.21,2.81,2.62,5.24-2.22,9.04-5.39,17.5-10.68,25.42-6.47,9.7-11.32,20.47-17.46,30.41-6.51,10.54-13.47,20.81-20.7,30.88-4.38,6.1-11.23,9.06-17.83,12.45-10.35,5.31-21.01,3.9-31.79,3.33-11.49-.61-23-.87-34.48-1.53-7.89-.45-15.75-1.31-23.62-2.06-1-.09-2.06-.44-2.91-.96-5.56-3.38-11.08-6.85-16.62-10.29,2.64-3.38,3.94-3.3,7.95-.37,3.03,2.21,6.28,4.16,9.54,6.04,6.72,3.87,14.32,2.9,21.56,3.36,16.05,1.02,32.14,1.28,48.19,2.27,12.58.78,22.55-5.05,31.89-12.09,7.14-5.38,11.75-13.03,16.32-20.72,7.26-12.22,15.17-24.05,22.95-35.96,6.82-10.46,12.09-21.53,14.41-33.88.1-.51.42-.98.66-1.53Z"/>
  <path class="cls-2" d="m161.35,467.48c-5.33,6.57-5.29,7,.54,13.01.79.81,1.44,1.79,2.02,2.77,2.19,3.7,5.52,5.09,9.68,5.62,2.69.34,5.44,1.39,7.8,2.76,3.22,1.87,4.67,1.77,6.09-1.71.59-1.45.64-3.12,1.11-4.63.63-2.02,1.01-4.31,2.24-5.92,2.59-3.4,2.75-6.18-.49-8.88-1.68-1.4-2.35-2.82-2.76-5.06-.62-3.4-2.2-6.68-3.71-9.85-1.8-3.79-4.03-7.38-5.89-11.15-.53-1.08-.44-2.47-.64-3.7h8.43c-.79,13.85,3.03,25.36,15.36,32.86-.74-.21-1.47-.51-2.23-.6-2.39-.3-4.36-.07-4.5,3.11-.08,1.8-.92,3.61-.8,5.37.07,1.03,1.22,2.64,2.14,2.83,5.66,1.21,11.4,2.08,17.1,3.08,6.86,1.21,13.71,2.49,20.57,3.64,4.28.72,8.58,1.25,12.88,1.89.98.15,1.95.38,3.56.7-6.98,3.9-13.51,5.89-20.96,4.53-4.38-.8-8.94-.6-13.4-1.03-7.98-.75-15.94-1.66-23.91-2.45-6.05-.6-12.09-1.3-18.16-1.63-4.38-.24-8.35-1.2-11.77-4.05-1.06-.88-2.16-1.78-3.39-2.37-4.21-2.02-6.54-5.31-7.94-9.75-.97-3.08-2.97-5.84-4.86-9.41h15.88Z"/>
  <path class="cls-2" d="m234.24,360.39c.22.38.44.76.66,1.14,2.19,2.31,4.37,4.62,6.74,7.11-4.03,6.32-8.3,13.08-12.67,19.77-.43.65-1.64,1.34-2.32,1.2-9.78-1.93-17.72,1.77-24.74,8.05-2.77,2.48-5.15,5.39-7.68,8.07,0-2.76-.26-5.37.07-7.9.32-2.49,1.25-4.9,1.91-7.35l-.11.14c1.39-1.49,2.91-2.88,4.13-4.5,2.88-3.81,5.61-7.74,8.4-11.62,2.97-3.35,5.94-6.69,8.92-10.04,4.01-4.7,8.02-9.4,12.02-14.1.35-.43.71-.87,1.06-1.3.48.54,1.24,1.01,1.4,1.64.82,3.2,1.49,6.45,2.21,9.68Z"/>
  <path class="cls-2" d="m322.29,380.48c-5.12-4.09-7.17-8.79-5.28-15.1.81-2.69.74-5.67.84-8.52.3-8.51.37-17.03.77-25.53.18-3.87.97-7.71,1.44-11.56.12-.99.21-2.01.13-3-.28-3.33,2.05-6.12,5.4-5.87,3.66.27,7.29.99,11.26,1.56-4.98,23.25-9.76,45.57-14.57,68.02Z"/>
  <path class="cls-2" d="m115.6,309.25c-3.38,8.05-6.93,16.4-10.38,24.78-.74,1.79-1.36,3.67-1.69,5.57-1.07,6.22,1.05,9.93,6.69,12.89,13.58,7.12,28.23,11.07,43.05,14.27,3.64.79,7.22,1.18,10.08,3.61,1.35,1.15,2.23,2.86,3.9,5.1-1.57-.27-2.08-.2-2.36-.42-8.36-6.37-18.37-8.31-28.22-10.84-7.23-1.85-14.35-4.16-21.46-6.46-2.14-.69-2.3.64-2.77,1.9-2.05,5.44-5.3,7.2-11.21,6.12-3.03-.55-6.08-1.09-9.13-1.46-2.04-.25-2.75-1.22-2.58-3.21.34-3.88.56-7.77.9-12.6,4.95.83,9.68,1.62,13.91,2.33-.77-1.26-2.28-3.04-3.02-5.09-2.16-6,1.41-11.13,3.07-16.49,1.38-4.43,2.96-8.89,5.14-12.96,1.49-2.77,4.17-4.9,6.07-7.04Z"/>
  <path class="cls-2" d="m252.92,402.99c-1.08-.7-2.81-1.77-4.49-2.92-.43-.3-1.06-1.05-.95-1.28,2.09-4.31-1.96-5.75-3.77-8.23-.4-.55-.82-1.08-1.28-1.68,3.42-5.49,6.8-10.91,10.32-16.57,6,2.8,12.63,4.16,16.99,9.69,2.27,2.88,1.15,8.73-2.01,10.83-4.83,3.21-9.57,6.55-14.81,10.15Z"/>
  <path class="cls-2" d="m244.68,479.78c1.72,0,3.45.1,5.16-.02,3.78-.27,6.78-2.07,8.91-5.15,4.83-7,6.41-15.2,8.95-23.14-3.79-1.17-7.11-2.2-10.84-3.35-.92,4.44-1.79,8.87-2.77,13.28-1.98,8.97-7.79,10.11-15.32,5.06,2.51.34,5.33.41,7.95,1.16,3.1.89,4.53-.96,5.21-3.08.93-2.89.98-6.05,1.65-9.04.66-2.97,1.62-5.88,2.42-8.71,4.63,1.32,9.37,2.75,14.15,4.01,4.68,1.23,9.4,2.29,14.64,3.56-5.81,8.87-11.94,18.3-18.18,27.67-.46.7-1.75,1.33-2.56,1.24-6.53-.75-13.03-1.67-19.54-2.55l.16-.92Z"/>
  <path class="cls-2" d="m196.2,390.49c-.66,2.45-1.58,4.86-1.91,7.35-.33,2.53-.07,5.14-.07,7.9,2.53-2.69,4.91-5.6,7.68-8.07,7.02-6.28,14.97-9.98,24.74-8.05.69.14,1.89-.55,2.32-1.2,4.38-6.69,8.64-13.45,12.67-19.77-2.36-2.5-4.55-4.8-6.74-7.11,2.94,1.95,5.88,3.89,9.07,6-4.78,7.47-9.54,14.98-14.42,22.41-.45.68-1.83,1.38-2.52,1.18-10.4-2.96-18.37,1.98-25.43,8.39-8.33,7.56-12.56,17.57-14.38,28.57-.56,3.36-.72,6.79-1.07,10.29h-10.5c-.41-7.13-.82-13.77,3.27-20.04,4.44-6.79,8.24-14,12.43-20.95,1.45-2.4,3.23-4.6,4.86-6.89Z"/>
  <path class="cls-2" d="m123.22,495.29c-1.03,1.83-1.86,3.29-2.72,4.82-1.93-3.21-3.78-6.27-5.6-9.29-.55,3.04-.76,5.63-1.53,8.05-1.4,4.45-3.14,8.79-4.81,13.4-2.51-2.41-5.12-4.48-3.86-8.76.9-3.04.84-6.34,1.57-9.44.53-2.22,1.66-4.29,2.69-6.84-.79-.57-2.14-1.53-3.75-2.69-.19,6.15-5.29,8.08-8.73,11.69-2.72-2.75-.3-5.75-.8-8.38-.78-4.13,3.14-4.23,5.04-6.59-5.81-3.94-11.6-7.79-17.31-11.77-8.39-5.84-16.79-11.65-25.03-17.7-2.83-2.07-5.56-2.91-8.94-1.95-1.17.33-2.47.17-3.75.24v-8.59c26.19,18.16,51.76,35.91,77.54,53.78Z"/>
  <path class="cls-2" d="m258.4,356.44c2.86.83,5.92,1.71,9.35,2.71-1.71,2.27-2.95,3.91-4.22,5.59-3.13-1.12-6.09-2.34-9.14-3.23-2.66-.77-3.88-2.26-3.5-5.02,12.31-5.28,20.24-13.14,17.51-30.87-1.62.16-3.26.32-4.89.48-.08-.24-.15-.47-.23-.71.92-.36,1.9-1.13,2.75-1,6.75.97,11.62-1.82,15.7-6.97,2.2-2.78,5.02-5.06,8.11-6.99-4.43,4.64-8.86,9.28-13.25,13.87q6.03,12.19,9.22,11.79c-.66,5.33-1.32,10.52-1.93,15.71-.32,2.74-1.97,3.61-4.51,3.53-1.36-.04-2.72.12-4.73.23.54-3.92,1.06-7.71,1.64-11.99-4.23.39-6.98,1.58-9.26,4.05-2.75,2.97-5.67,5.8-8.64,8.82Zm13.12-30.78c0,3.13.14,5.76-.04,8.37-.18,2.58-.67,5.13-1.03,7.74,1.73-.16,3.4-.21,5.03-.5,2.86-.52,4.76-2.85,3.94-4.76-1.29-3.02-2.62-6.04-4.04-9-.83-1.73-1.88-3.32-3.87-1.85Z"/>
  <path class="cls-2" d="m272.78,441.69c5-16.29,18.53-18.7,33.56-20.43-3.93,5.86-7.5,11.22-11.12,16.55-1.03,1.52-2.53,2.81-3.21,4.45-1.48,3.59-4.28,3.41-7.11,2.77-4.09-.94-8.11-2.22-12.12-3.35Z"/>
  <path class="cls-2" d="m109.4,369.33c-2,6.84-3.67,12.72-5.44,18.58-2.49,8.24-2.52,8.23-11.13,8.23-1.37,0-2.74,0-4.61,0,0-1.75-.06-3.3.01-4.85.18-4.25.64-8.49.55-12.73-.05-2.7.57-4.15,3.37-4.86,3.08-.78,5.97-2.32,9.05-3.16,2.4-.66,4.96-.75,8.2-1.19Z"/>
  <path class="cls-2" d="m293.54,342.64c-5.16-2.22-6.03-4.2-4.09-9.43,2.07-5.56,4.14-11.11,6.23-16.66.27-.71.63-1.39,1.23-2.71,5.48,3.93,10.83,7.45,15.82,11.43,4.79,3.82,4.3,5.46-1.21,7.99-3.89,1.79-7.47,3.5-11.1-.43-.24-.26-2.4.54-2.84,1.32-1.51,2.64-2.65,5.48-4.04,8.48Z"/>
  <path class="cls-2" d="m80.61,485.37c4.51.69,11.28,6.9,11.65,10.75.17,1.76-.18,4.23-1.31,5.35-5.62,5.6-11.54,10.89-17.45,16.18-.55.49-1.96.61-2.58.24-.63-.38-1.28-1.74-1.06-2.38,3.52-10.11,7.17-20.18,10.76-30.15Z"/>
  <path class="cls-2" d="m86.45,365.88c.99,6.33.83,6.68-4.67,8.68-5.68,2.07-11.38,4.06-17.32,6.18-1.63-4.38-3.27-8.48-4.66-12.66-.81-2.44,3.31-6.39,6.24-5.9,6.84,1.14,13.65,2.46,20.42,3.7Z"/>
  <path class="cls-2" d="m187.62,312.21c-2.36-1.02-4.01-1.74-5.19-2.25-.92,1.13-1.46,2.4-2.38,2.81-4.05,1.81-8.21,3.38-12.59,5.13-4.24-9.69-11.64-15.79-21.92-18.75,2.08.45,4.17.88,6.25,1.34,2.11.46,4.25.84,6.32,1.42,9.09,2.57,18.13,5.32,27.26,7.76,3.38.91,3.85,3.06,2.97,5.67-1.24,3.67-2.84,7.22-4.46,10.75-5.38,11.75-10.89,23.44-16.23,35.21-1.17,2.58-1.82,5.39-2.78,8.29-1.69-1.18-3.31-2.3-5.44-3.78,4.46,0,5.71-2.79,7.07-6.06,3.61-8.64,7.68-17.08,11.5-25.63,3.21-7.17,6.32-14.39,9.62-21.91Z"/>
  <path class="cls-2" d="m314.45,396.33c-9.49,4.09-19.89,6.6-30.62,8.55,9.34-4.88,13.37-14.38,19.65-21.91,1.34-1.6,3.14-3.03,5.03-3.9,2.51-1.16,4.58.52,4.61,3.3.02,2.31-.15,4.63.05,6.92.18,2.1.74,4.17,1.29,7.04Z"/>
  <path class="cls-2" d="m277.35,310.07c1.18,1.84-.14,2.54-1.41,3.52-5.99,4.62-11.94,9.28-17.79,14.06-1.48,1.21-2.65,2.87-3.78,4.45-2.35,3.27-5.6,5.05-9.1,6.93-2.97,1.6-6.26,4.46-7.25,7.47-1.89,5.77,2.17,11.95,8.02,14.23,4.25,1.66,8.46,3.51,12.83,4.78,4.36,1.27,6.91,4.12,9.06,7.85,1.27,2.19,3.2,3.99,4.76,6.02.36.47.45,1.16.3,1.95-7.44-7.86-18.08-9.91-26.6-15.54-.66-.43-1.43-.73-2.19-.96-6.59-2-8.8-6.85-8.68-13.25,0-.12.04-.25,0-.34-3.02-5.76,1.2-8.56,5.06-10.59,6.79-3.58,11.32-9.34,16.58-14.57,5.06-5.03,11.44-8.73,17.2-13.08,1.13-.85,2.03-1.99,3.05-3,.01,0-.07.06-.07.06Z"/>
  <path class="cls-2" d="m169.08,438.86c.32-4.19.64-8.37.96-12.56,0-.11.11-.22.1-.33-1.31-11,5.89-18.6,10.83-27.09,4.78-8.22,9.43-16.54,14.57-24.54,3.02-4.7,6.81-8.9,10.37-13.24,2.62-3.2,5.17-6.54,8.24-9.26,1.66-1.47,4.34-1.78,6.81-2.04-6.97,8.49-13.81,17.1-20.94,25.45-9.68,11.34-17.29,24.05-24.28,37.08-3.88,7.23-4.3,15.56-4.5,23.73-.02,1.01-.46,2.02-.71,3.03-.48-.09-.96-.17-1.44-.26Z"/>
  <path class="cls-2" d="m85.45,396.13c-4.89,0-9.26.09-13.61-.08-.82-.03-1.99-.99-2.34-1.8-1.48-3.45-2.7-7.01-4.15-10.88,6.81-2.44,13.59-4.88,21-7.54-.31,6.94-.59,13.41-.89,20.3Z"/>
  <path class="cls-2" d="m236.95,443.67c-5.22-2.71-9.91-5.05-14.47-7.61-.74-.42-1.35-1.79-1.33-2.7.05-2.03.53-4.06.93-6.73,6.16-1.51,12.74-3.11,20.19-4.93-.09,7.9-3.99,14.4-5.31,21.97Z"/>
  <path class="cls-2" d="m37.32,534.04c4.98,6.99,9.74,14.11,16.97,19.05,7.28,4.97,14.99,8.86,23.47,11.09,8.35,2.2,16.86,3.36,25.54,2.55,8.59-.8,16.76-3.24,24.53-7.25.24.47.47.94.71,1.41-1.13.93-2.12,2.29-3.42,2.72-5.92,1.97-11.82,4.41-17.93,5.36-16.13,2.5-31.41-.96-45.85-8.33-10.3-5.25-18.47-12.79-24.23-22.85-.5-.88-.61-1.99-.9-2.99.37-.25.74-.51,1.11-.76Z"/>
  <path class="cls-2" d="m216.29,295.4c-30.98-5.25-61.96-10.5-93.3-15.81v-5.31c31.11,6.82,62.26,13.65,93.41,20.48-.04.21-.07.42-.11.63Z"/>
  <path class="cls-2" d="m24.4,449.26c-.62,31.66,8.02,60.11,28.61,84.42-.28.33-.55.66-.83.99-1.21-.76-2.67-1.3-3.6-2.32-8.04-8.9-13.46-19.4-17.84-30.42-4.62-11.63-7.81-23.64-8.33-36.24-.17-4.13-.53-8.26-.6-12.39-.02-1.3.6-2.61.93-3.91.55-.04,1.11-.08,1.66-.13Z"/>
  <path class="cls-2" d="m142.71,510.9c-4.82,10.63-11.49,19.96-20.04,27.97-6.6,6.18-13.64,11.74-22.62,13.92-9.59,2.33-19.1,1.62-28.34-1.86-.73-.27-1.2-1.23-1.79-1.88.18-.33.36-.65.54-.98,3.47.83,6.9,1.86,10.41,2.47,12.77,2.2,24.31-.46,34.4-8.9,9.99-8.36,18.42-17.93,24.21-29.69.42-.85,1.63-1.3,2.48-1.94.25.3.5.6.75.9Z"/>
  <path class="cls-2" d="m145.51,484.02c-1.24,1.32-2.48,2.64-4.08,4.34-5.96-3.46-12.04-6.98-18.3-10.61,1.67-4.14,5-6.6,9.29-7.49,1.54-.32,3.99.23,4.95,1.32,3.25,3.72,6.02,7.85,8.97,11.83-.28.2-.55.4-.83.6Z"/>
  <path class="cls-2" d="m231.27,460.15c-3.49,2.7-6.75,5.3-10.11,7.79-1.88,1.39-3.29,1.12-4.01-1.41-1.64-5.79-3.56-11.51-4.99-17.36-.28-1.14,1.18-2.7,2.06-4.56,5.87,5.35,11.15,10.17,17.04,15.54Z"/>
  <path class="cls-2" d="m226.45,393.78c4,3.73,7.58,7.08,11.6,10.83-6.85,4.09-12.78,7.64-18.86,11.27-1.07-1.34-2.12-2.67-3.47-4.37,3.11-5.15,6.58-10.88,10.73-17.74Z"/>
  <path class="cls-2" d="m141.13,315.1c5.96-.66,14.03,5.13,14.16,14.34.11,7.64-6.8,14.17-14.47,14.1-7.77-.08-13.93-6.51-13.91-14.51.02-8.09,6-13.95,14.22-13.93Zm-11.39,14.11c0,6.76,4.74,11.53,11.4,11.49,6.23-.03,11.35-5.16,11.38-11.39.03-6.45-5.05-11.44-11.64-11.44-6.56,0-11.14,4.67-11.14,11.33Z"/>
  <path class="cls-2" d="m104.15,396.62c2.72-9.05,5.19-17.28,7.75-25.78,2.73.42,5.28.82,8.12,1.26-1.21,6.03-2.36,11.92-3.62,17.79-.12.56-.77,1.15-1.33,1.43-3.34,1.68-6.73,3.28-10.92,5.3Z"/>
  <path class="cls-2" d="m120.92,418.37c2.23-6.88,4.25-13.13,6.28-19.41h10.17c-.73,4.73-1.4,9.28-2.2,13.8-.09.5-.86,1.08-1.43,1.28-4.05,1.42-8.12,2.76-12.82,4.33Z"/>
  <path class="cls-2" d="m213.95,348.77c-5.98,6.71-11.69,13.11-17.4,19.51-.18-.1-.36-.21-.54-.31,1.61-2.94,3.22-5.88,4.65-8.49-4.63-7.75-9.43-15.19-9.31-24.45.03-2.2.48-4.7,1.59-6.54,5.61-9.27,11.77-18.14,21.27-23.99.26-.16.59-.19.88-.28-3.82,4.04-7.85,7.85-11.33,12.12-3.39,4.16-6.41,8.66-9.23,13.23-2.73,4.42-2.49,9.17-.36,13.84,1.84,4.05,3.67,8.11,5.61,12.12.34.7,1.21,1.15,1.83,1.71.27-.73.72-1.46.77-2.21.49-6.56,5.06-9.32,11.57-6.26Z"/>
  <path class="cls-2" d="m92.39,340.82c.98.14,2.73.23,4.37.69.61.17.97,1.23,1.45,1.88-.57.25-1.2.8-1.72.71-11.75-2.09-21.5,2.82-30.64,9.13-7.88,5.44-13.27,13.23-18.14,21.35-.43.71-1.42,1.09-2.15,1.62-.1-.88-.51-1.86-.24-2.61,5.72-15.9,28.37-32.24,45.3-32.77.34-.01.69,0,1.77,0Z"/>
  <path class="cls-2" d="m66.98,514.61c-3.91-1.9-2.33-5.13-2.15-7.69.34-4.64,1.37-9.23,1.83-13.87.29-2.99,1.14-5.16,4.36-6.01,2.36-.63,4.6-1.71,7.09-2.67-3.79,10.29-7.42,20.16-11.13,30.24Z"/>
  <path class="cls-2" d="m103.8,280.74c4.53.81,8.16,1.46,11.93,2.14-3.02,4.73-6.12,9.61-9.29,14.45-.24.36-1.1.65-1.51.5-2.86-.98-5.94-1.67-8.44-3.26-2.59-1.65-2.06-3.48.83-4.66.11-.04.2-.15.3-.16,4.93-.56,7.87-2.75,6.17-9.02Z"/>
  <path class="cls-2" d="m143.51,432.71v11.7c6.67.51,13.13.98,19.59,1.51,1.66.14,3.89-.49,4.01,2.99-2.59-.28-5.02-.63-7.46-.8-5.11-.35-10.23-.5-15.33-.91-3.52-.28-7.01-.84-10.51-1.33-.4-.06-1.11-.51-1.08-.63.68-2.87.84-6.12,2.39-8.45,1.15-1.73,4.1-2.27,6.26-3.31.58-.28,1.22-.43,2.15-.76Z"/>
  <path class="cls-2" d="m287.62,342.32c2.31.9,4.49,1.67,6.58,2.62.64.29,1.2.98,1.56,1.62,3.26,5.88,3.82,12.24,3.55,18.53-3.19-1.02-6.24-1.87-9.18-3.03-.64-.25-1.19-1.62-1.17-2.46.03-1.07.62-2.16,1.08-3.19,1.37-3.06,2.45-5.95-1.95-7.6-.58-.22-1.02-1.56-1.02-2.39,0-1.46.38-2.92.56-4.09Z"/>
  <path class="cls-2" d="m203.79,469.05c-4.98-2.39-8-5.84-10.24-9.99-.38-.7-.04-2.04.38-2.89,1.9-3.89,3.95-7.71,6.03-11.74,2.53,1.34,4.07,2.82,3.91,6.02-.28,5.95-.08,11.92-.08,18.6Z"/>
  <path class="cls-2" d="m86.62,363.16c-6.66-1.28-12.95-2.49-19.81-3.8,6.27-5.46,12.69-8.96,20.7-10-.3,4.62-.58,8.92-.89,13.8Z"/>
  <path class="cls-2" d="m288.21,449.31c-1.31.5-2.61,1.38-3.94,1.42-8.72.3-16.75-2.68-24.85-5.38-3.17-1.06-4.19-2.69-2.5-5.74.42-.77.57-1.69.91-2.77,9.13,6.68,19.77,8.6,30.09,11.36.1.37.19.73.29,1.1Z"/>
  <path class="cls-2" d="m17.68,423.94c-2.89,20.27-3.2,40.48.77,60.61-.44.16-.88.32-1.32.48-.57-.95-1.51-1.85-1.65-2.87-1-7.24-2.59-14.5-2.56-21.75.04-11.2,1.2-22.4,1.96-33.59.07-1.02.7-2,1.08-3,.58.04,1.15.08,1.73.12Z"/>
  <path class="cls-2" d="m238.47,445.59c2.68-8.15,5.36-16.29,8.07-24.52,2.85.99,5.1,1.78,8.17,2.85-2.04,4.06-3.84,8.02-5.98,11.79-1.51,2.66-3.3,5.21-5.28,7.54-1.14,1.35-2.92,2.16-4.41,3.21-.19-.29-.38-.58-.57-.87Z"/>
  <path class="cls-2" d="m91.85,505.9c-.31,5.45-.63,10.89-.96,16.65-5.55.91-10.77.23-16.03-2.35,5.52-4.98,10.84-9.78,16.16-14.57.28.09.55.18.83.27Z"/>
  <path class="cls-2" d="m110.34,418.28c-2.93-4.03-5.61-7.68-8.26-11.37-1.78-2.49,1.09-7.59,4.53-8.05.56-.08,1.15-.03,1.72-.03,1.94,0,3.87,0,6.14,0-1.42,6.68-2.77,13.05-4.13,19.45Z"/>
  <path class="cls-2" d="m127.85,254.42c1.05-.06,2.16-.38,3.14-.15,15.52,3.63,31.03,7.31,46.53,11.03,1.2.29,2.31.96,3.24,2.21-17.94-2.7-35.89-5.1-52.94-11.53,0-.52.02-1.04.03-1.56Z"/>
  <path class="cls-2" d="m159.02,387.14c.34.42.93.8.99,1.26,1.02,7.47,2.4,14.93,2.84,22.44.49,8.39.16,16.82.07,25.24-.01,1.19-.69,2.37-1.06,3.55-.51-1.25-1.44-2.48-1.47-3.75-.2-7.37.1-14.77-.34-22.12-.46-7.63-1.6-15.23-2.37-22.84-.12-1.21.09-2.46.15-3.69.4-.03.8-.05,1.19-.08Z"/>
  <path class="cls-2" d="m67.25,339.28c-5.96,5.95-12.09,11.23-17.18,17.38-4.93,5.95-8.78,12.8-13.18,19.21-.59.86-1.61,1.42-2.43,2.12-.03-1.13-.52-2.55-.02-3.35,3.54-5.76,6.79-11.8,11.08-16.97,4.9-5.9,10.69-11.07,16.28-16.36,1.32-1.25,2.81-3.5,5.45-2.02Z"/>
  <path class="cls-2" d="m184.71,490.92c-2.23-1.55-3.89-2.71-5.54-3.87.06-.08.12-.22.19-.23,5.68-.77,6.37-6.02,8.71-9.75,1.34-2.13-.16-3.81-1.8-4.49-7-2.9-6.41-9.99-8.72-15.43-.46-1.07.51-2.75.92-4.62,3.88,3.94,6.37,7.99,6.65,13.15.14,2.58,1.19,4.55,3.32,6.08,2.49,1.79,2.8,3.63.64,6.3-1.45,1.79-1.81,4.49-2.58,6.81-.62,1.87-1.12,3.78-1.79,6.05Z"/>
  <path class="cls-2" d="m236,464.26c1.23,4.61-1.91,11.66,5.28,14.75-7.59-1.3-15.18-2.61-21.86-3.75,4.9-3.25,10.53-6.99,16.58-11Z"/>
  <path class="cls-2" d="m112.46,421.52c1.47-6.75,3.1-12.47,3.86-18.31.49-3.76,1.96-4.96,5.44-4.39.66.11,1.36.02,2.56.02-2.22,6.97-4.16,13.68-6.61,20.19-.43,1.15-3.02,1.5-5.25,2.5Z"/>
  <path class="cls-2" d="m52.49,495.05c4.21-1.84,7.72-3.38,11.76-5.15-.39,3.64-.67,6.77-1.07,9.89-.39,3.04-.91,6.06-2.1,9.44-2.79-4.6-5.57-9.2-8.59-14.18Z"/>
  <path class="cls-2" d="m119.26,389.38c1.29-5.94,2.43-11.23,3.57-16.49,6.88,1.03,9.04,4.16,6.81,9.83-.44,1.12-1.59,2.15-2.67,2.79-2.25,1.33-4.68,2.37-7.71,3.87Z"/>
  <path class="cls-2" d="m65.21,479.58q.43,6.81-5.14,9.25c-2.68,1.17-5.33,2.41-8.91,4.03.67-3.87,1.17-6.93,1.78-9.96.08-.4.68-.89,1.12-.99,3.63-.81,7.27-1.53,11.15-2.33Z"/>
  <path class="cls-2" d="m134.32,433.85c1.08-6.21,1.85-11.73,3.13-17.13.27-1.14,2.41-1.83,4.38-3.2.58,5.58,1.12,10.29,1.49,15,.04.51-.83,1.29-1.45,1.62-2.2,1.18-4.48,2.22-7.55,3.71Z"/>
  <path class="cls-2" d="m138.16,360.18c10.63.46,18.48-3.65,25.44-10.56-2.2,4.44-4.36,8.91-6.62,13.32-.89,1.73-2.14,2.11-4.22,1.48-4.12-1.25-8.41-1.98-12.61-2.98-.48-.11-.89-.55-1.99-1.26Z"/>
  <path class="cls-2" d="m190.88,419.89c9.4,8.13,8.61,12.97-3.01,19.93,1.04-6.91,1.97-13.06,3.01-19.93Z"/>
  <path class="cls-2" d="m45.42,463.82v-11.05c3.04-.28,6.04-.56,9.55-.89-.56,4.22-1,7.97-1.63,11.7-.07.44-1.22,1.03-1.84.99-2-.11-4-.47-6.09-.75Z"/>
  <path class="cls-2" d="m94.79,501.25c5.18,3.73,7.31,7.87,4.88,13.31-.27.6-.29,1.33-.35,2.01-.42,4.2-.55,4.35-5.59,5.41.36-6.99.71-13.86,1.06-20.72Z"/>
  <path class="cls-2" d="m202.78,414.75c-.36-1.66-.58-2.52-.72-3.39-.43-2.61-2.06-6.07-.98-7.66,2.26-3.32,5.97-5.65,9.09-8.39l.96.83c-1.3,4.88-2.4,9.83-4.03,14.59-.5,1.45-2.49,2.39-4.32,4.02Z"/>
  <path class="cls-2" d="m53.67,479.08c.49-3.41.87-6.43,1.39-9.42.1-.56.61-1.29,1.12-1.51,3.04-1.31,10.14,2.64,10.28,5.88.04.96-1.21,2.59-2.16,2.86-3.35.95-6.84,1.45-10.62,2.19Z"/>
  <path class="cls-2" d="m119.59,354.08c-3.56-1.67-7.21-3.17-10.64-5.07-3.06-1.7-3.94-4.81-3.34-8.04.58-3.09,1.75-6.08,2.95-9.17,1.36,8.57,4.85,15.96,11.03,22.27Z"/>
  <path class="cls-2" d="m154.7,409.46c-3.52-12.22-6.96-24.11-10.32-36.02-.12-.41.61-1.06.97-1.64,4.54,4.14,11.88,33.3,9.35,37.65Z"/>
  <path class="cls-2" d="m315.6,333.85v13.14c-3.01-1.81-5.29-3.19-8.03-4.84.38,1.97.72,3.72,1.06,5.47-.31.06-.61.12-.92.18-.51-2.48-1.18-4.94-1.45-7.44-.1-.88.54-2.32,1.27-2.72,2.56-1.43,5.3-2.52,8.08-3.79Z"/>
  <path class="cls-2" d="m195.16,269.36c4.63.99,9.22,2.23,13.89,2.9,5.24.74,10.55.94,15.83,1.44.56.05,1.09.55,1.63.84-.53.61-1.03,1.69-1.61,1.74-2.51.21-5.1.47-7.56.06-6.72-1.12-13.4-2.52-20.07-3.94-1.03-.22-1.93-1.1-2.89-1.67.26-.45.52-.9.78-1.35Z"/>
  <path class="cls-2" d="m258.57,330.95c2.91-1.95,5.7-.87,6.12,2.38.47,3.65-.62,6.81-3.17,9.42-1.8,1.85-4.3,3.22-6.45,1.8-1.5-.99-1.92-3.62-2.4-5.71,3.62,2.32,5.75,2.5,7.51.38,1.92-2.31,1.25-5.72-1.61-8.27Z"/>
  <path class="cls-2" d="m103.38,328.63c-4.96.64-10.05.81-14.85,2.06-4.88,1.27-9.49,3.62-14.22,5.49-.25-.27-.49-.53-.74-.8.5-.76.83-1.93,1.52-2.21,9.03-3.69,17.84-8.73,28.1-5.72l.19,1.18Z"/>
  <path class="cls-2" d="m232.63,389.35c4.37-6.8,8.5-13.36,12.82-19.8.42-.63,2.01-.47,3.22-.24-4.67,7.33-6.08,16.85-16.04,20.03Z"/>
  <path class="cls-2" d="m164.59,468.62c-3.71,11.79,6.08,13.46,12.65,17.62-4.22.86-7.78.19-10.6-2.97-1.9-2.13-4.01-4.1-5.64-6.42-1.89-2.7-2.28-5.43,3.59-8.22Z"/>
  <path class="cls-2" d="m80.7,322.49c.78-3.38,1.53-6.64,2.21-9.58,4.38,1.91,8.86,3.87,12.89,5.63-4.43,1.16-9.63,2.52-15.1,3.95Z"/>
  <path class="cls-2" d="m278.02,369.09c-1.88-2.7-3.76-5.08-5.21-7.71-.41-.74.3-3.06.81-3.17,2.64-.55,5.37-.62,8.77-.92-1.62,4.37-3.05,8.23-4.37,11.8Z"/>
  <path class="cls-2" d="m52.69,467.6c-1.17,4.45-.25,9.2-3.45,12.63-.42-.05-.84-.1-1.26-.14-.76-4.31-1.53-8.61-2.36-13.3,2.58.3,4.55.52,7.08.81Z"/>
  <path class="cls-2" d="m137.74,395.96h-9.8c2.25-3.48,1.24-8.15,5.95-10.79,1.34,3.77,2.54,7.11,3.85,10.79Z"/>
  <path class="cls-2" d="m34.62,391.09c-4.81,2.62-9.96,3.65-15.48,3.36,1.37-6.68,9.09-5.91,15.48-3.36Z"/>
  <path class="cls-2" d="m279.62,309h6.38c-5.56,4.5-7.79,13.3-17.31,12.43,2.92-2.04,5.73-4.25,8.78-6.06,2.52-1.49,3.92-3.11,2.14-6.37Z"/>
  <path class="cls-2" d="m142.6,298.75c-8.6-.26-16.28,1.96-22.98,7.33,1.52-1.7,2.97-3.48,4.59-5.09,1.62-1.61,3.36-3.13,5.18-4.5.59-.44,1.66-.56,2.42-.4,3.62.8,7.2,1.75,10.8,2.65Z"/>
  <path class="cls-2" d="m177.57,449.36c-1.84,0-3.2.11-4.54-.02-3.66-.37-5.33-3.62-3.49-6.88.33-.58,1.28-1.29,1.77-1.18,1.19.26,2.66.69,3.33,1.58,1.06,1.41,1.57,3.24,2.3,4.9.17.39.32.8.63,1.6Z"/>
  <path class="cls-2" d="m117.79,395.88c1.23-5.48,6.35-4.99,9.77-7.85-2.61,9.98-1.09,8.08-9.77,7.85Z"/>
  <path class="cls-2" d="m314.19,348.66c-3.09,4.15-3.24,9.87-7.48,13.09-.35-.18-.7-.36-1.04-.54,1.45-4.09,2.85-8.19,4.36-12.25.94-2.53,2.4-1.11,4.16-.3Z"/>
  <path class="cls-2" d="m61.83,466.02c-2.08-.34-3.85-.63-5.88-.96.46-3.74.92-7.46,1.38-11.19.19-.01.38-.03.57-.04,1.26,3.9,2.51,7.81,3.92,12.18Z"/>
  <path class="cls-2" d="m121,363.7c1.04,5.62.43,5.95-7.61,4.38.19-2.47,1.22-3.07,7.61-4.38Z"/>
  <path class="cls-2" d="m181.39,315.27c-2.98,4.17-8.26,4.36-12.29,7.09-.44-2.69,4.9-5.83,12.29-7.09Z"/>
  <path class="cls-2" d="m239.72,395.98c4.06,3.08,8.13,6.15,13.17,9.97-1.82.19-3.35.77-3.73.33-3.1-3.49-5.97-7.17-8.92-10.79-.17.16-.34.33-.52.49Z"/>
  <path class="cls-2" d="m241.84,317.9c1.31,1.96,2.66,3.36,2.42,3.73-.99,1.52-2.46,2.74-3.75,4.06-.73-.84-2.22-1.97-2.04-2.48.6-1.62,1.82-3,3.36-5.32Z"/>
  <path class="cls-2" d="m75.57,481.99c-1.28.68-1.84,1.04-2.45,1.3-1.55.66-3.12,1.27-5.49,2.22.59-2.68,1.06-4.79,1.52-6.89,1.98,1.04,3.97,2.08,6.42,3.37Z"/>
  <path class="cls-2" d="m179.31,320.46c-.92,5.19-6.08,4.32-8.98,6.9-.71-3.23,2.28-5.37,8.98-6.9Z"/>
  <path class="cls-2" d="m103.73,493.32c-.68,4.12-1.19,7.21-1.82,10.98-1.53-2.1-2.7-3.71-4.04-5.55,1.75-1.63,3.44-3.19,5.86-5.43Z"/>
  <path class="cls-2" d="m263.53,418.47c2.46-4.83,4.83-9.93,11.55-9.74-3.82,3.22-7.68,6.48-11.55,9.74Z"/>
  <path class="cls-2" d="m233.34,313.44c-.44-.96-1.48-2.22-1.18-2.81.68-1.36,2.02-2.38,3.09-3.54.8.82,2.42,1.99,2.25,2.4-.65,1.51-1.88,2.76-2.89,4.11-.42-.05-.84-.1-1.26-.15Z"/>
  <path class="cls-2" d="m116.24,498.58c2.38,5.15,1.55,7.32-4.06,11.73,1.39-4.02,2.61-7.56,4.06-11.73Z"/>
  <path class="cls-2" d="m219.24,331.44c1.75-1.37,2.87-2.25,3.99-3.13.66.89,2.06,2.07,1.84,2.6-.52,1.28-1.79,2.25-2.76,3.34-.81-.74-1.62-1.48-3.07-2.81Z"/>
  <path class="cls-2" d="m89.71,366.55c2.84.5,5.51.97,8.17,1.44.07.2.14.39.21.59-2.7,1.02-5.41,2.03-8.39,3.15v-5.18Z"/>
  <path class="cls-2" d="m230.75,324.55c-.53-.93-1.73-2.14-1.47-2.73.61-1.4,1.9-2.51,2.91-3.74.7.72,2.09,1.6,1.97,2.14-.34,1.54-1.3,2.94-2.02,4.4-.46-.02-.93-.05-1.39-.07Z"/>
  <path class="cls-2" d="m230.28,308.68c-1.78,1.36-2.94,2.49-4.32,3.14-.33.15-2.15-1.74-2.03-1.94.8-1.35,1.82-2.65,3.07-3.57.27-.2,1.74,1.24,3.28,2.38Z"/>
  <path class="cls-2" d="m238.7,312.62c2.02-1.4,3.24-2.44,4.65-3.05.31-.13,1.99,1.73,1.85,1.95-.81,1.33-1.84,2.61-3.09,3.5-.29.21-1.72-1.18-3.41-2.41Z"/>
  <path class="cls-2" d="m227.22,319.18c-1.91,1.34-2.95,2.37-4.2,2.76-.36.11-2.04-1.97-1.83-2.39.61-1.21,1.79-2.25,2.98-2.96.27-.16,1.49,1.24,3.05,2.6Z"/>
  <path class="cls-2" d="m219.55,316.9c-1.71,1.44-2.65,2.62-3.84,3.02-.42.14-2.3-1.99-2.09-2.48.52-1.24,1.76-2.29,2.94-3.04.25-.16,1.5,1.23,3,2.51Z"/>
  <path class="cls-2" d="m234.51,331.84c-1.53,1.44-2.47,2.57-3.67,3.26-.23.13-2.22-1.79-2.06-2.15.57-1.24,1.63-2.35,2.76-3.17.25-.18,1.52,1.03,2.97,2.06Z"/>
  <path class="cls-2" d="m208.63,374.52c-2.79,3.88-5.52,7.8-8.4,11.62-1.22,1.62-2.75,3.01-4.13,4.5,4.18-5.37,8.36-10.74,12.54-16.11Z"/>
  <path class="cls-2" d="m216.4,325.23c.47.98,1.48,2.08,1.29,2.9-.25,1.08-1.45,1.94-2.24,2.89-.7-.97-1.9-1.91-1.96-2.91-.06-.96,1.08-1.99,1.69-2.99.41.04.81.08,1.22.11Z"/>
  <path class="cls-2" d="m101.84,518.11c.42-2.28.84-4.57,1.37-7.45,1.52,1.74,2.6,2.99,4.02,4.62-1.61,1.17-3.1,2.26-4.59,3.34l-.81-.5Z"/>
  <path class="cls-2" d="m250.76,411.4c.86-.24,1.75-.76,2.57-.66.96.12,1.94.65,2.75,1.24.84.62,1.47,1.51,2.2,2.28-1.07-.04-2.19.11-3.19-.18-1.39-.4-2.69-1.13-4.02-1.72-.1-.32-.2-.64-.3-.96Z"/>
  <path class="cls-2" d="m294.68,387.2c-1.6-3.26-2.89-5.89-4.18-8.52.3-.14.59-.28.89-.41,3.08,2.48,4.91,6.31,3.29,8.93Z"/>
  <path class="cls-2" d="m229.57,350.38c-4.01,4.7-8.02,9.4-12.02,14.1,4.01-4.7,8.02-9.4,12.02-14.1Z"/>
  <path class="cls-2" d="m238.25,391.71c3.95-.33,7.31,2.74,7.21,6.08-2.41-2.03-4.49-3.79-7.21-6.08Z"/>
  <path class="cls-2" d="m297.66,371.13c1.57,2.74,3.13,5.47,4.95,8.65-.76-.04-1.76.15-1.94-.14-1.56-2.64-4.22-4.88-3.01-8.5Z"/>
  <path class="cls-2" d="m306.32,364.27c-.39,3.33-.75,6.47-1.09,9.42-2.85-5.87-2.57-8.5,1.09-9.42Z"/>
  <path class="cls-2" d="m294.72,374.82c1.02,2.75,4.53,4.43,3.93,8.77-2.86-2.93-4.84-5.26-3.93-8.77Z"/>
  <path class="cls-2" d="m308.52,377c-1.8-5.14-1.03-9.23,1.18-13.25-.37,4.11-.73,8.21-1.18,13.25Z"/>
  <path class="cls-2" d="m137.95,412.01c.51-2.56,1.01-5.05,1.57-7.85,2.43,7.34,2.41,7.44-1.57,7.85Z"/>
  <path class="cls-2" d="m234.24,360.39c-.72-3.23-1.39-6.47-2.21-9.68-.16-.62-.92-1.1-1.4-1.64.48-.63.96-1.25,1.44-1.88.3,0,.59-.01.89-.02.43,4.41.86,8.81,1.28,13.22Z"/>
  <path class="cls-2" d="m26.43,428.79c3.35,2.01,6.7,4.02,10.06,6.03-.18.27-.35.55-.53.82-4.21-.7-6.68-4.04-9.43-6.94,0,0-.09.09-.09.09Z"/>
  <path class="cls-2" d="m114.11,430.57c-.71-2.34-1.25-4.1-1.88-6.19,1.38-.49,2.58-.92,4.25-1.52-.82,2.67-1.5,4.87-2.37,7.71Z"/>
  <path class="cls-2" d="m236.7,390.81c.52,1.34,1.04,2.69,1.66,4.28-2.28-.36-4.36-.68-6.39-1,1.71-1.18,3.22-2.23,4.73-3.28Z"/>
  <path class="cls-2" d="m260.73,411.65c-2.92-1.31-5.2-2.33-7.5-3.36,1.45-2.13,5.08-.75,7.5,3.36Z"/>
  <path class="cls-2" d="m175.6,328.21c-1.67,1.38-3.35,2.77-5.02,4.15-.57-4.04,2.59-3.68,4.23-5.1.26.31.53.63.79.94Z"/>
  <path class="cls-2" d="m256.6,333.38c.84.81,1.98,1.5,2.37,2.48.17.42-1.2,1.47-1.88,2.23-.66-1.15-1.32-2.3-1.99-3.45.5-.42,1-.84,1.49-1.26Z"/>
  <path class="cls-2" d="m288.81,381.33c1.61,2.54,3.08,4.86,4.6,7.27-2.95-.4-5.49-4.22-4.6-7.27Z"/>
  <path class="cls-2" d="m248.6,417.52c2.23,1.01,4.45,2.03,6.68,3.04-.18.4-.36.8-.55,1.2-2.29-.94-4.57-1.89-6.86-2.83.24-.47.48-.94.73-1.42Z"/>
  <path class="cls-2" d="m303.35,375.95c-1.97-2.6-4.44-5.06-2.29-8.75l2.29,8.75Z"/>
  <path class="cls-2" d="m89.94,399.04h8.47c-3.02,2.84-5.5,1.69-8.47,0Z"/>
  <path class="cls-2" d="m332.57,212.18c-.54.54-1.41,2.23-2.61,2.52-14.49,3.41-25.59,12.48-36.63,21.67-3.63,3.02-7.11,6.21-10.72,9.25-1.86,1.57-4.11,2.07-5.9.22-1.82-1.88-1.78-4.45.2-6.18,14.51-12.67,28.4-26.32,47.92-31.34,1.21-.31,2.44-.68,3.68-.76,2.38-.15,4.05,1.43,4.05,4.63Z"/>
  <path class="cls-2" d="m346.22,212.73c-.61-.7-2.28-1.85-2.76-3.37-.63-1.98.34-3.92,2.75-4.33,5.62-.95,11.23-2.02,16.89-2.55,2.28-.21,5.13.55,5.24,3.71.04,1.2-1.1,3.35-1.99,3.51-6.27,1.18-12.62,1.96-20.13,3.03Z"/>
  <path class="cls-2" d="m497.39,220.18c8.31-3.67,21.8,1.05,25.81,9.94,6.82,15.13,8.31,30.41,1.56,45.82-3.11,7.09-8.25,12.8-15.84,15.44-9.62,3.34-20.1-.56-26.79-9.9-7.94-11.08-10.76-23.65-8.3-36.87.98-5.27,4.68-10.04,7.27-15.29,1.39,1.99,2.33,2.91,3.67.4,1.18-2.21,2.74-4.25,4.38-6.15,1.63-1.89,3.6-2.46,6.03-.94.94.59,2.44.49,3.67.42,12.7-.79,19.83,9.03,21.29,18.59,1.16,7.63-.16,14.75-2.17,21.94-.25.88.2,1.96.32,2.94.68-.63,1.74-1.15,1.99-1.92,2.86-9.06,4.39-18.22,1.45-27.59-3.43-10.92-10.45-15.87-24.33-16.82Zm-.84,18.64c1.3,2.49,2.92,4.61,3.51,6.98.6,2.39,1.12,5.64-.01,7.44-2.01,3.19-7.01,2.62-9.68-.29-.45-.49-1.56-1.09-1.84-.89-.62.44-1.25,1.34-1.27,2.07-.08,3.64,3.73,8.66,7.16,9.68,3.96,1.18,8.42-.39,10.97-3.83,2.62-3.53,3.29-7.57,2.71-11.75-.9-6.45-6-10.53-11.54-9.41Zm17.27,39.5c-5.4,1.2-10.11,3.14-14.78,3.04-4.5-.09-8.95-2.28-13.9-3.69.43,1,.48,1.39.7,1.59,6.12,5.6,20.32,6.32,26.72,1.31.62-.48.84-1.47,1.26-2.25Z"/>
  <path class="cls-2" d="m502.87,206.97c-11.86,1.08-19.44,7.59-25,16.9-5.49,9.2-7.56,19.28-7.11,29.93.08,1.92.01,3.85-.47,5.88-.4-1.36-.71-2.75-1.23-4.05-.46-1.15.1-3.34-2.45-2.76-.12.03-.71-1.05-.7-1.6.07-3.74.22-7.47.39-11.2.05-1.2.23-2.4.35-3.6l-1.24-.47c-.69,1.29-1.75,2.52-2.01,3.89-1.07,5.71-1.9,11.47-2.9,17.75-.21.05-1.04.24-2.13.48,0-5.04-.54-10.05.11-14.9,1.52-11.4,5.77-21.68,14.54-29.58,8.01-7.22,17.32-9.99,27.98-7.68.52.11.98.53,1.87,1.03Z"/>
  <path class="cls-2" d="m35.1,320.8h3.02c0,3.66.25,7.29-.13,10.86-.13,1.25-1.8,2.34-2.77,3.5-.3-.1-.59-.2-.89-.3.25-4.54.5-9.09.77-14.06Z"/>
  <path class="cls-2" d="m40.55,331.03c.19-3.55.34-6.41.51-9.49,1.08-.07,2.07-.14,2.89-.2,1.92,1.8.24,7.78-3.4,9.68Z"/>
  <path class="cls-2" d="m271.52,325.65c1.99-1.48,3.04.12,3.87,1.85,1.42,2.97,2.75,5.98,4.04,9,.82,1.91-1.08,4.24-3.94,4.76-1.63.29-3.3.34-5.03.5.36-2.61.86-5.17,1.03-7.74.18-2.61.04-5.24.04-8.37Z"/>
  <path class="cls-2" d="m129.74,329.21c0-6.66,4.58-11.33,11.14-11.33,6.59,0,11.67,4.99,11.64,11.44-.03,6.23-5.15,11.36-11.38,11.39-6.66.03-11.39-4.74-11.4-11.49Z"/>
  <path class="cls-2" d="m496.54,238.82c5.55-1.13,10.64,2.95,11.54,9.41.58,4.18-.1,8.23-2.71,11.75-2.55,3.44-7.01,5.01-10.97,3.83-3.43-1.02-7.24-6.04-7.16-9.68.02-.73.65-1.63,1.27-2.07.28-.2,1.39.4,1.84.89,2.67,2.91,7.67,3.48,9.68.29,1.14-1.8.61-5.05.01-7.44-.59-2.37-2.21-4.49-3.51-6.98Z"/>
  <path class="cls-2" d="m513.81,278.32c-.42.78-.64,1.77-1.26,2.25-6.4,5.02-20.6,4.29-26.72-1.31-.22-.2-.27-.59-.7-1.59,4.95,1.4,9.4,3.59,13.9,3.69,4.67.1,9.39-1.84,14.78-3.04Z"/>
</svg>